<?xml version="1.0" encoding="UTF-8" standalone="no"?>
<!DOCTYPE svg PUBLIC "-//W3C//DTD SVG 1.1//EN"
 "http://www.w3.org/Graphics/SVG/1.1/DTD/svg11.dtd">
<!-- Generated by graphviz version 2.40.1 (20161225.0304)
 -->
<!-- Title: dependency&#45;cruiser output Pages: 1 -->
<svg width="881pt" height="392pt"
 viewBox="0.00 0.00 880.50 392.00" xmlns="http://www.w3.org/2000/svg" xmlns:xlink="http://www.w3.org/1999/xlink">
<g id="graph0" class="graph" transform="scale(1 1) rotate(0) translate(4 388)">
<title>dependency&#45;cruiser output</title>
<polygon fill="#ffffff" stroke="transparent" points="-4,4 -4,-388 876.5,-388 876.5,4 -4,4"/>
<g id="clust1" class="cluster">
<title>cluster_src</title>
<path fill="#ffffff" stroke="#000000" stroke-width="2" d="M20,-8C20,-8 852.5,-8 852.5,-8 858.5,-8 864.5,-14 864.5,-20 864.5,-20 864.5,-364 864.5,-364 864.5,-370 858.5,-376 852.5,-376 852.5,-376 20,-376 20,-376 14,-376 8,-370 8,-364 8,-364 8,-20 8,-20 8,-14 14,-8 20,-8"/>
<text text-anchor="middle" x="436.25" y="-364.8" font-family="Helvetica,sans-Serif" font-weight="bold" font-size="9.00" fill="#000000">src</text>
</g>
<g id="clust2" class="cluster">
<title>cluster_src/server</title>
<path fill="#ffffff" stroke="#000000" stroke-width="2" d="M28,-16C28,-16 844.5,-16 844.5,-16 850.5,-16 856.5,-22 856.5,-28 856.5,-28 856.5,-338 856.5,-338 856.5,-344 850.5,-350 844.5,-350 844.5,-350 28,-350 28,-350 22,-350 16,-344 16,-338 16,-338 16,-28 16,-28 16,-22 22,-16 28,-16"/>
<text text-anchor="middle" x="436.25" y="-338.8" font-family="Helvetica,sans-Serif" font-weight="bold" font-size="9.00" fill="#000000">server</text>
</g>
<g id="clust3" class="cluster">
<title>cluster_src/server/Ammo</title>
<path fill="#ffffff" stroke="#000000" stroke-width="2" d="M514.5,-34C514.5,-34 648.5,-34 648.5,-34 654.5,-34 660.5,-40 660.5,-46 660.5,-46 660.5,-74 660.5,-74 660.5,-80 654.5,-86 648.5,-86 648.5,-86 514.5,-86 514.5,-86 508.5,-86 502.5,-80 502.5,-74 502.5,-74 502.5,-46 502.5,-46 502.5,-40 508.5,-34 514.5,-34"/>
<text text-anchor="middle" x="581.5" y="-74.8" font-family="Helvetica,sans-Serif" font-weight="bold" font-size="9.00" fill="#000000">Ammo</text>
</g>
<g id="clust4" class="cluster">
<title>cluster_src/server/Character</title>
<path fill="#ffffff" stroke="#000000" stroke-width="2" d="M250,-120C250,-120 385.5,-120 385.5,-120 391.5,-120 397.5,-126 397.5,-132 397.5,-132 397.5,-160 397.5,-160 397.5,-166 391.5,-172 385.5,-172 385.5,-172 250,-172 250,-172 244,-172 238,-166 238,-160 238,-160 238,-132 238,-132 238,-126 244,-120 250,-120"/>
<text text-anchor="middle" x="317.75" y="-160.8" font-family="Helvetica,sans-Serif" font-weight="bold" font-size="9.00" fill="#000000">Character</text>
</g>
<g id="clust5" class="cluster">
<title>cluster_src/server/Emitter</title>
<path fill="#ffffff" stroke="#000000" stroke-width="2" d="M417.5,-206C417.5,-206 463.5,-206 463.5,-206 469.5,-206 475.5,-212 475.5,-218 475.5,-218 475.5,-246 475.5,-246 475.5,-252 469.5,-258 463.5,-258 463.5,-258 417.5,-258 417.5,-258 411.5,-258 405.5,-252 405.5,-246 405.5,-246 405.5,-218 405.5,-218 405.5,-212 411.5,-206 417.5,-206"/>
<text text-anchor="middle" x="440.5" y="-246.8" font-family="Helvetica,sans-Serif" font-weight="bold" font-size="9.00" fill="#000000">Emitter</text>
</g>
<g id="clust6" class="cluster">
<title>cluster_src/server/Keyboard</title>
<path fill="#ffffff" stroke="#000000" stroke-width="2" d="M250.5,-60C250.5,-60 307.5,-60 307.5,-60 313.5,-60 319.5,-66 319.5,-72 319.5,-72 319.5,-100 319.5,-100 319.5,-106 313.5,-112 307.5,-112 307.5,-112 250.5,-112 250.5,-112 244.5,-112 238.5,-106 238.5,-100 238.5,-100 238.5,-72 238.5,-72 238.5,-66 244.5,-60 250.5,-60"/>
<text text-anchor="middle" x="279" y="-100.8" font-family="Helvetica,sans-Serif" font-weight="bold" font-size="9.00" fill="#000000">Keyboard</text>
</g>
<g id="clust7" class="cluster">
<title>cluster_src/server/Luminary</title>
<path fill="#ffffff" stroke="#000000" stroke-width="2" d="M514.5,-272C514.5,-272 651,-272 651,-272 657,-272 663,-278 663,-284 663,-284 663,-312 663,-312 663,-318 657,-324 651,-324 651,-324 514.5,-324 514.5,-324 508.5,-324 502.5,-318 502.5,-312 502.5,-312 502.5,-284 502.5,-284 502.5,-278 508.5,-272 514.5,-272"/>
<text text-anchor="middle" x="582.75" y="-312.8" font-family="Helvetica,sans-Serif" font-weight="bold" font-size="9.00" fill="#000000">Luminary</text>
</g>
<g id="clust8" class="cluster">
<title>cluster_src/server/Object</title>
<path fill="#ffffff" stroke="#000000" stroke-width="2" d="M685.5,-72C685.5,-72 758.5,-72 758.5,-72 764.5,-72 770.5,-78 770.5,-84 770.5,-84 770.5,-142 770.5,-142 770.5,-148 764.5,-154 758.5,-154 758.5,-154 685.5,-154 685.5,-154 679.5,-154 673.5,-148 673.5,-142 673.5,-142 673.5,-84 673.5,-84 673.5,-78 679.5,-72 685.5,-72"/>
<text text-anchor="middle" x="722" y="-142.8" font-family="Helvetica,sans-Serif" font-weight="bold" font-size="9.00" fill="#000000">Object</text>
</g>
<g id="clust9" class="cluster">
<title>cluster_src/server/Player</title>
<path fill="#ffffff" stroke="#000000" stroke-width="2" d="M170,-180C170,-180 218,-180 218,-180 224,-180 230,-186 230,-192 230,-192 230,-250 230,-250 230,-256 224,-262 218,-262 218,-262 170,-262 170,-262 164,-262 158,-256 158,-250 158,-250 158,-192 158,-192 158,-186 164,-180 170,-180"/>
<text text-anchor="middle" x="194" y="-250.8" font-family="Helvetica,sans-Serif" font-weight="bold" font-size="9.00" fill="#000000">Player</text>
</g>
<g id="clust10" class="cluster">
<title>cluster_src/server/PowerUp</title>
<path fill="#ffffff" stroke="#000000" stroke-width="2" d="M498.5,-146C498.5,-146 653.5,-146 653.5,-146 659.5,-146 665.5,-152 665.5,-158 665.5,-158 665.5,-246 665.5,-246 665.5,-252 659.5,-258 653.5,-258 653.5,-258 498.5,-258 498.5,-258 492.5,-258 486.5,-252 486.5,-246 486.5,-246 486.5,-158 486.5,-158 486.5,-152 492.5,-146 498.5,-146"/>
<text text-anchor="middle" x="576" y="-246.8" font-family="Helvetica,sans-Serif" font-weight="bold" font-size="9.00" fill="#000000">PowerUp</text>
</g>
<g id="clust11" class="cluster">
<title>cluster_src/server/Skin</title>
<path fill="#ffffff" stroke="#000000" stroke-width="2" d="M790.5,-168C790.5,-168 836.5,-168 836.5,-168 842.5,-168 848.5,-174 848.5,-180 848.5,-180 848.5,-208 848.5,-208 848.5,-214 842.5,-220 836.5,-220 836.5,-220 790.5,-220 790.5,-220 784.5,-220 778.5,-214 778.5,-208 778.5,-208 778.5,-180 778.5,-180 778.5,-174 784.5,-168 790.5,-168"/>
<text text-anchor="middle" x="813.5" y="-208.8" font-family="Helvetica,sans-Serif" font-weight="bold" font-size="9.00" fill="#000000">Skin</text>
</g>
<g id="clust12" class="cluster">
<title>cluster_src/server/Sound</title>
<path fill="#ffffff" stroke="#000000" stroke-width="2" d="M171,-60C171,-60 217,-60 217,-60 223,-60 229,-66 229,-72 229,-72 229,-100 229,-100 229,-106 223,-112 217,-112 217,-112 171,-112 171,-112 165,-112 159,-106 159,-100 159,-100 159,-72 159,-72 159,-66 165,-60 171,-60"/>
<text text-anchor="middle" x="194" y="-100.8" font-family="Helvetica,sans-Serif" font-weight="bold" font-size="9.00" fill="#000000">Sound</text>
</g>
<g id="clust13" class="cluster">
<title>cluster_src/server/Stage</title>
<path fill="#ffffff" stroke="#000000" stroke-width="2" d="M171,-120C171,-120 217,-120 217,-120 223,-120 229,-126 229,-132 229,-132 229,-160 229,-160 229,-166 223,-172 217,-172 217,-172 171,-172 171,-172 165,-172 159,-166 159,-160 159,-160 159,-132 159,-132 159,-126 165,-120 171,-120"/>
<text text-anchor="middle" x="194" y="-160.8" font-family="Helvetica,sans-Serif" font-weight="bold" font-size="9.00" fill="#000000">Stage</text>
</g>
<g id="clust14" class="cluster">
<title>cluster_src/server/Weapon</title>
<path fill="#ffffff" stroke="#000000" stroke-width="2" d="M339.5,-34C339.5,-34 466.5,-34 466.5,-34 472.5,-34 478.5,-40 478.5,-46 478.5,-46 478.5,-74 478.5,-74 478.5,-80 472.5,-86 466.5,-86 466.5,-86 339.5,-86 339.5,-86 333.5,-86 327.5,-80 327.5,-74 327.5,-74 327.5,-46 327.5,-46 327.5,-40 333.5,-34 339.5,-34"/>
<text text-anchor="middle" x="403" y="-74.8" font-family="Helvetica,sans-Serif" font-weight="bold" font-size="9.00" fill="#000000">Weapon</text>
</g>
<!-- src/server/Ammo/Ammo.js -->
<g id="node1" class="node">
<title>src/server/Ammo/Ammo.js</title>
<g id="a_node1"><a xlink:href="https://github.com/deetzen/rocket-wars/tree/develop/src/server/Ammo/Ammo.js" xlink:title="Ammo.js">
<path fill="#ffffcc" stroke="#000000" d="M646.5,-60C646.5,-60 604.5,-60 604.5,-60 601.5,-60 598.5,-57 598.5,-54 598.5,-54 598.5,-48 598.5,-48 598.5,-45 601.5,-42 604.5,-42 604.5,-42 646.5,-42 646.5,-42 649.5,-42 652.5,-45 652.5,-48 652.5,-48 652.5,-54 652.5,-54 652.5,-57 649.5,-60 646.5,-60"/>
<text text-anchor="middle" x="625.5" y="-48.8" font-family="Helvetica,sans-Serif" font-size="9.00" fill="#000000">Ammo.js</text>
</a>
</g>
</g>
<!-- src/server/Object/FlyingObject.js -->
<g id="node11" class="node">
<title>src/server/Object/FlyingObject.js</title>
<g id="a_node11"><a xlink:href="https://github.com/deetzen/rocket-wars/tree/develop/src/server/Object/FlyingObject.js" xlink:title="FlyingObject.js">
<path fill="#ffffcc" stroke="#000000" d="M754.5,-128C754.5,-128 689.5,-128 689.5,-128 686.5,-128 683.5,-125 683.5,-122 683.5,-122 683.5,-116 683.5,-116 683.5,-113 686.5,-110 689.5,-110 689.5,-110 754.5,-110 754.5,-110 757.5,-110 760.5,-113 760.5,-116 760.5,-116 760.5,-122 760.5,-122 760.5,-125 757.5,-128 754.5,-128"/>
<text text-anchor="middle" x="722" y="-116.8" font-family="Helvetica,sans-Serif" font-size="9.00" fill="#000000">FlyingObject.js</text>
</a>
</g>
</g>
<!-- src/server/Ammo/Ammo.js&#45;&gt;src/server/Object/FlyingObject.js -->
<g id="edge1" class="edge">
<title>src/server/Ammo/Ammo.js&#45;&gt;src/server/Object/FlyingObject.js</title>
<path fill="none" stroke="#000000" stroke-width="2" stroke-opacity="0.466667" d="M631.5127,-60.2565C639.6558,-72.0782 655.2843,-92.3909 673.5,-104 674.2967,-104.5077 675.1117,-104.9992 675.942,-105.475"/>
<polygon fill="#000000" fill-opacity="0.466667" stroke="#000000" stroke-width="2" stroke-opacity="0.466667" points="674.7669,-108.7942 685.294,-109.991 677.8109,-102.4907 674.7669,-108.7942"/>
</g>
<!-- src/server/Skin/Skin.js -->
<g id="node20" class="node">
<title>src/server/Skin/Skin.js</title>
<g id="a_node20"><a xlink:href="https://github.com/deetzen/rocket-wars/tree/develop/src/server/Skin/Skin.js" xlink:title="Skin.js">
<path fill="#ffffcc" stroke="#000000" d="M834.5,-194C834.5,-194 792.5,-194 792.5,-194 789.5,-194 786.5,-191 786.5,-188 786.5,-188 786.5,-182 786.5,-182 786.5,-179 789.5,-176 792.5,-176 792.5,-176 834.5,-176 834.5,-176 837.5,-176 840.5,-179 840.5,-182 840.5,-182 840.5,-188 840.5,-188 840.5,-191 837.5,-194 834.5,-194"/>
<text text-anchor="middle" x="813.5" y="-182.8" font-family="Helvetica,sans-Serif" font-size="9.00" fill="#000000">Skin.js</text>
</a>
</g>
</g>
<!-- src/server/Ammo/Ammo.js&#45;&gt;src/server/Skin/Skin.js -->
<g id="edge2" class="edge">
<title>src/server/Ammo/Ammo.js&#45;&gt;src/server/Skin/Skin.js</title>
<path fill="none" stroke="#000000" stroke-width="2" stroke-opacity="0.466667" d="M652.7116,-46.6038C684.4628,-43.0689 736.8885,-42.3899 770.5,-69 786.0292,-81.2944 801.5017,-136.0847 808.9386,-165.7562"/>
<polygon fill="#000000" fill-opacity="0.466667" stroke="#000000" stroke-width="2" stroke-opacity="0.466667" points="805.6081,-166.8719 811.3788,-175.7573 812.4086,-165.2126 805.6081,-166.8719"/>
</g>
<!-- src/server/Ammo/Bullet.js -->
<g id="node2" class="node">
<title>src/server/Ammo/Bullet.js</title>
<g id="a_node2"><a xlink:href="https://github.com/deetzen/rocket-wars/tree/develop/src/server/Ammo/Bullet.js" xlink:title="Bullet.js">
<path fill="#ffffcc" stroke="#000000" d="M558.5,-60C558.5,-60 516.5,-60 516.5,-60 513.5,-60 510.5,-57 510.5,-54 510.5,-54 510.5,-48 510.5,-48 510.5,-45 513.5,-42 516.5,-42 516.5,-42 558.5,-42 558.5,-42 561.5,-42 564.5,-45 564.5,-48 564.5,-48 564.5,-54 564.5,-54 564.5,-57 561.5,-60 558.5,-60"/>
<text text-anchor="middle" x="537.5" y="-48.8" font-family="Helvetica,sans-Serif" font-size="9.00" fill="#000000">Bullet.js</text>
</a>
</g>
</g>
<!-- src/server/Ammo/Bullet.js&#45;&gt;src/server/Ammo/Ammo.js -->
<g id="edge3" class="edge">
<title>src/server/Ammo/Bullet.js&#45;&gt;src/server/Ammo/Ammo.js</title>
<path fill="none" stroke="#000000" stroke-width="2" stroke-opacity="0.466667" d="M564.8614,-51C572.2986,-51 580.4797,-51 588.3598,-51"/>
<polygon fill="#000000" fill-opacity="0.466667" stroke="#000000" stroke-width="2" stroke-opacity="0.466667" points="588.4579,-54.5001 598.4578,-51 588.4578,-47.5001 588.4579,-54.5001"/>
</g>
<!-- src/server/Character/Character.js -->
<g id="node3" class="node">
<title>src/server/Character/Character.js</title>
<g id="a_node3"><a xlink:href="https://github.com/deetzen/rocket-wars/tree/develop/src/server/Character/Character.js" xlink:title="Character.js">
<path fill="#ffffcc" stroke="#000000" d="M306,-146C306,-146 252,-146 252,-146 249,-146 246,-143 246,-140 246,-140 246,-134 246,-134 246,-131 249,-128 252,-128 252,-128 306,-128 306,-128 309,-128 312,-131 312,-134 312,-134 312,-140 312,-140 312,-143 309,-146 306,-146"/>
<text text-anchor="middle" x="279" y="-134.8" font-family="Helvetica,sans-Serif" font-size="9.00" fill="#000000">Character.js</text>
</a>
</g>
</g>
<!-- src/server/Character/Shield.js -->
<g id="node4" class="node">
<title>src/server/Character/Shield.js</title>
<g id="a_node4"><a xlink:href="https://github.com/deetzen/rocket-wars/tree/develop/src/server/Character/Shield.js" xlink:title="Shield.js">
<path fill="#ffffcc" stroke="#000000" d="M383.5,-146C383.5,-146 341.5,-146 341.5,-146 338.5,-146 335.5,-143 335.5,-140 335.5,-140 335.5,-134 335.5,-134 335.5,-131 338.5,-128 341.5,-128 341.5,-128 383.5,-128 383.5,-128 386.5,-128 389.5,-131 389.5,-134 389.5,-134 389.5,-140 389.5,-140 389.5,-143 386.5,-146 383.5,-146"/>
<text text-anchor="middle" x="362.5" y="-134.8" font-family="Helvetica,sans-Serif" font-size="9.00" fill="#000000">Shield.js</text>
</a>
</g>
</g>
<!-- src/server/Character/Character.js&#45;&gt;src/server/Character/Shield.js -->
<g id="edge7" class="edge">
<title>src/server/Character/Character.js&#45;&gt;src/server/Character/Shield.js</title>
<path fill="none" stroke="#000000" stroke-width="2" stroke-opacity="0.466667" d="M312.0014,-137C316.3605,-137 320.8528,-137 325.2765,-137"/>
<polygon fill="#000000" fill-opacity="0.466667" stroke="#000000" stroke-width="2" stroke-opacity="0.466667" points="325.3792,-140.5001 335.3791,-137 325.3791,-133.5001 325.3792,-140.5001"/>
</g>
<!-- src/server/Character/Character.js&#45;&gt;src/server/Object/FlyingObject.js -->
<g id="edge4" class="edge">
<title>src/server/Character/Character.js&#45;&gt;src/server/Object/FlyingObject.js</title>
<path fill="none" stroke="#000000" stroke-width="2" stroke-opacity="0.466667" d="M305.1968,-127.9262C312.359,-125.713 320.1687,-123.5415 327.5,-122 376.9717,-111.5979 389.9465,-109 440.5,-109 440.5,-109 440.5,-109 537.5,-109 583.5348,-109 635.9361,-112.1425 673.0997,-114.9042"/>
<polygon fill="#000000" fill-opacity="0.466667" stroke="#000000" stroke-width="2" stroke-opacity="0.466667" points="672.9228,-118.4008 683.1597,-115.6701 673.4543,-111.421 672.9228,-118.4008"/>
</g>
<!-- src/server/Character/Character.js&#45;&gt;src/server/Skin/Skin.js -->
<g id="edge5" class="edge">
<title>src/server/Character/Character.js&#45;&gt;src/server/Skin/Skin.js</title>
<path fill="none" stroke="#000000" stroke-width="2" stroke-opacity="0.466667" d="M304.6817,-127.9117C310.4264,-124.698 315.8819,-120.4737 319.5,-115 329.8398,-99.3573 313.9661,-43.9784 327.5,-31 363.7997,3.8096 390.207,-25 440.5,-25 440.5,-25 440.5,-25 625.5,-25 690.3356,-25 720.7135,.5326 770.5,-41 789.7534,-57.0614 804.3345,-130.1739 810.4064,-165.6187"/>
<polygon fill="#000000" fill-opacity="0.466667" stroke="#000000" stroke-width="2" stroke-opacity="0.466667" points="806.9864,-166.3898 812.074,-175.6832 813.8922,-165.2455 806.9864,-166.3898"/>
</g>
<!-- src/server/Weapon/Canon.js -->
<g id="node24" class="node">
<title>src/server/Weapon/Canon.js</title>
<g id="a_node24"><a xlink:href="https://github.com/deetzen/rocket-wars/tree/develop/src/server/Weapon/Canon.js" xlink:title="Canon.js">
<path fill="#ffffcc" stroke="#000000" d="M383.5,-60C383.5,-60 341.5,-60 341.5,-60 338.5,-60 335.5,-57 335.5,-54 335.5,-54 335.5,-48 335.5,-48 335.5,-45 338.5,-42 341.5,-42 341.5,-42 383.5,-42 383.5,-42 386.5,-42 389.5,-45 389.5,-48 389.5,-48 389.5,-54 389.5,-54 389.5,-57 386.5,-60 383.5,-60"/>
<text text-anchor="middle" x="362.5" y="-48.8" font-family="Helvetica,sans-Serif" font-size="9.00" fill="#000000">Canon.js</text>
</a>
</g>
</g>
<!-- src/server/Character/Character.js&#45;&gt;src/server/Weapon/Canon.js -->
<g id="edge6" class="edge">
<title>src/server/Character/Character.js&#45;&gt;src/server/Weapon/Canon.js</title>
<path fill="none" stroke="#000000" stroke-width="2" stroke-opacity="0.466667" d="M300.446,-127.8025C306.9995,-124.3738 313.9375,-120.0628 319.5,-115 323.5093,-111.3508 339.6638,-86.6912 350.9866,-69.0738"/>
<polygon fill="#000000" fill-opacity="0.466667" stroke="#000000" stroke-width="2" stroke-opacity="0.466667" points="354.2301,-70.4986 356.6722,-60.1891 348.334,-66.7255 354.2301,-70.4986"/>
</g>
<!-- src/server/Character/Shield.js&#45;&gt;src/server/Object/FlyingObject.js -->
<g id="edge8" class="edge">
<title>src/server/Character/Shield.js&#45;&gt;src/server/Object/FlyingObject.js</title>
<path fill="none" stroke="#000000" stroke-width="2" stroke-opacity="0.466667" d="M389.7807,-134.2612C394.9955,-133.7946 400.4136,-133.3489 405.5,-133 500.1662,-126.507 610.978,-122.4073 673.1819,-120.4239"/>
<polygon fill="#000000" fill-opacity="0.466667" stroke="#000000" stroke-width="2" stroke-opacity="0.466667" points="673.5917,-123.9129 683.477,-120.1009 673.3721,-116.9163 673.5917,-123.9129"/>
</g>
<!-- src/server/Character/Shield.js&#45;&gt;src/server/Skin/Skin.js -->
<g id="edge9" class="edge">
<title>src/server/Character/Shield.js&#45;&gt;src/server/Skin/Skin.js</title>
<path fill="none" stroke="#000000" stroke-width="2" stroke-opacity="0.466667" d="M389.7389,-136.0227C459.7572,-133.7229 642.1715,-129.1514 665.5,-143 671.6624,-146.6582 667.6863,-152.8097 673.5,-157 689.6054,-168.6081 740.3712,-176.6522 776.1152,-181.0475"/>
<polygon fill="#000000" fill-opacity="0.466667" stroke="#000000" stroke-width="2" stroke-opacity="0.466667" points="775.8714,-184.543 786.2134,-182.2424 776.694,-177.5915 775.8714,-184.543"/>
</g>
<!-- src/server/Emitter/Emitter.js -->
<g id="node5" class="node">
<title>src/server/Emitter/Emitter.js</title>
<g id="a_node5"><a xlink:href="https://github.com/deetzen/rocket-wars/tree/develop/src/server/Emitter/Emitter.js" xlink:title="Emitter.js">
<path fill="#ffffcc" stroke="#000000" d="M461.5,-232C461.5,-232 419.5,-232 419.5,-232 416.5,-232 413.5,-229 413.5,-226 413.5,-226 413.5,-220 413.5,-220 413.5,-217 416.5,-214 419.5,-214 419.5,-214 461.5,-214 461.5,-214 464.5,-214 467.5,-217 467.5,-220 467.5,-220 467.5,-226 467.5,-226 467.5,-229 464.5,-232 461.5,-232"/>
<text text-anchor="middle" x="440.5" y="-220.8" font-family="Helvetica,sans-Serif" font-size="9.00" fill="#000000">Emitter.js</text>
</a>
</g>
</g>
<!-- src/server/Luminary/Asteroid.js -->
<g id="node9" class="node">
<title>src/server/Luminary/Asteroid.js</title>
<g id="a_node9"><a xlink:href="https://github.com/deetzen/rocket-wars/tree/develop/src/server/Luminary/Asteroid.js" xlink:title="Asteroid.js">
<path fill="#ffffcc" stroke="#000000" d="M649,-298C649,-298 602,-298 602,-298 599,-298 596,-295 596,-292 596,-292 596,-286 596,-286 596,-283 599,-280 602,-280 602,-280 649,-280 649,-280 652,-280 655,-283 655,-286 655,-286 655,-292 655,-292 655,-295 652,-298 649,-298"/>
<text text-anchor="middle" x="625.5" y="-286.8" font-family="Helvetica,sans-Serif" font-size="9.00" fill="#000000">Asteroid.js</text>
</a>
</g>
</g>
<!-- src/server/Emitter/Emitter.js&#45;&gt;src/server/Luminary/Asteroid.js -->
<g id="edge10" class="edge">
<title>src/server/Emitter/Emitter.js&#45;&gt;src/server/Luminary/Asteroid.js</title>
<path fill="none" stroke="#000000" stroke-width="2" stroke-opacity="0.466667" d="M448.6531,-232.2111C457.1507,-241.1566 471.3259,-254.3337 486.5,-261 525.1135,-277.9636 539.4313,-264.4019 580.5,-274 583.9732,-274.8117 587.5593,-275.7782 591.1207,-276.8237"/>
<polygon fill="#000000" fill-opacity="0.466667" stroke="#000000" stroke-width="2" stroke-opacity="0.466667" points="590.3884,-280.2621 600.9776,-279.9171 592.4844,-273.5833 590.3884,-280.2621"/>
</g>
<!-- src/server/Luminary/Planet.js -->
<g id="node10" class="node">
<title>src/server/Luminary/Planet.js</title>
<g id="a_node10"><a xlink:href="https://github.com/deetzen/rocket-wars/tree/develop/src/server/Luminary/Planet.js" xlink:title="Planet.js">
<path fill="#ffffcc" stroke="#000000" d="M558.5,-298C558.5,-298 516.5,-298 516.5,-298 513.5,-298 510.5,-295 510.5,-292 510.5,-292 510.5,-286 510.5,-286 510.5,-283 513.5,-280 516.5,-280 516.5,-280 558.5,-280 558.5,-280 561.5,-280 564.5,-283 564.5,-286 564.5,-286 564.5,-292 564.5,-292 564.5,-295 561.5,-298 558.5,-298"/>
<text text-anchor="middle" x="537.5" y="-286.8" font-family="Helvetica,sans-Serif" font-size="9.00" fill="#000000">Planet.js</text>
</a>
</g>
</g>
<!-- src/server/Emitter/Emitter.js&#45;&gt;src/server/Luminary/Planet.js -->
<g id="edge11" class="edge">
<title>src/server/Emitter/Emitter.js&#45;&gt;src/server/Luminary/Planet.js</title>
<path fill="none" stroke="#000000" stroke-width="2" stroke-opacity="0.466667" d="M447.0038,-232.0099C455.1371,-242.6858 470.0121,-260.3623 486.5,-271 490.9232,-273.8538 495.855,-276.3209 500.8605,-278.4339"/>
<polygon fill="#000000" fill-opacity="0.466667" stroke="#000000" stroke-width="2" stroke-opacity="0.466667" points="499.8712,-281.8017 510.4627,-282.0692 502.3497,-275.2552 499.8712,-281.8017"/>
</g>
<!-- src/server/PowerUp/PermanentFire.js -->
<g id="node15" class="node">
<title>src/server/PowerUp/PermanentFire.js</title>
<g id="a_node15"><a xlink:href="https://github.com/deetzen/rocket-wars/tree/develop/src/server/PowerUp/PermanentFire.js" xlink:title="PermanentFire.js">
<path fill="#ffffcc" stroke="#000000" d="M574.5,-232C574.5,-232 500.5,-232 500.5,-232 497.5,-232 494.5,-229 494.5,-226 494.5,-226 494.5,-220 494.5,-220 494.5,-217 497.5,-214 500.5,-214 500.5,-214 574.5,-214 574.5,-214 577.5,-214 580.5,-217 580.5,-220 580.5,-220 580.5,-226 580.5,-226 580.5,-229 577.5,-232 574.5,-232"/>
<text text-anchor="middle" x="537.5" y="-220.8" font-family="Helvetica,sans-Serif" font-size="9.00" fill="#000000">PermanentFire.js</text>
</a>
</g>
</g>
<!-- src/server/Emitter/Emitter.js&#45;&gt;src/server/PowerUp/PermanentFire.js -->
<g id="edge12" class="edge">
<title>src/server/Emitter/Emitter.js&#45;&gt;src/server/PowerUp/PermanentFire.js</title>
<path fill="none" stroke="#000000" stroke-width="2" stroke-opacity="0.466667" d="M467.5199,-223C472.7052,-223 478.3011,-223 483.9899,-223"/>
<polygon fill="#000000" fill-opacity="0.466667" stroke="#000000" stroke-width="2" stroke-opacity="0.466667" points="484.2615,-226.5001 494.2614,-223 484.2614,-219.5001 484.2615,-226.5001"/>
</g>
<!-- src/server/PowerUp/RefillAmmo.js -->
<g id="node17" class="node">
<title>src/server/PowerUp/RefillAmmo.js</title>
<g id="a_node17"><a xlink:href="https://github.com/deetzen/rocket-wars/tree/develop/src/server/PowerUp/RefillAmmo.js" xlink:title="RefillAmmo.js">
<path fill="#ffffcc" stroke="#000000" d="M568,-172C568,-172 507,-172 507,-172 504,-172 501,-169 501,-166 501,-166 501,-160 501,-160 501,-157 504,-154 507,-154 507,-154 568,-154 568,-154 571,-154 574,-157 574,-160 574,-160 574,-166 574,-166 574,-169 571,-172 568,-172"/>
<text text-anchor="middle" x="537.5" y="-160.8" font-family="Helvetica,sans-Serif" font-size="9.00" fill="#000000">RefillAmmo.js</text>
</a>
</g>
</g>
<!-- src/server/Emitter/Emitter.js&#45;&gt;src/server/PowerUp/RefillAmmo.js -->
<g id="edge13" class="edge">
<title>src/server/Emitter/Emitter.js&#45;&gt;src/server/PowerUp/RefillAmmo.js</title>
<path fill="none" stroke="#000000" stroke-width="2" stroke-opacity="0.466667" d="M447.6265,-213.7028C455.909,-203.5158 470.501,-187.379 486.5,-178 488.0327,-177.1015 489.6232,-176.2533 491.2543,-175.453"/>
<polygon fill="#000000" fill-opacity="0.466667" stroke="#000000" stroke-width="2" stroke-opacity="0.466667" points="493.0655,-178.4876 500.9177,-171.3747 490.3437,-172.0384 493.0655,-178.4876"/>
</g>
<!-- src/server/PowerUp/RefillShield.js -->
<g id="node18" class="node">
<title>src/server/PowerUp/RefillShield.js</title>
<g id="a_node18"><a xlink:href="https://github.com/deetzen/rocket-wars/tree/develop/src/server/PowerUp/RefillShield.js" xlink:title="RefillShield.js">
<path fill="#ffffcc" stroke="#000000" d="M568,-202C568,-202 507,-202 507,-202 504,-202 501,-199 501,-196 501,-196 501,-190 501,-190 501,-187 504,-184 507,-184 507,-184 568,-184 568,-184 571,-184 574,-187 574,-190 574,-190 574,-196 574,-196 574,-199 571,-202 568,-202"/>
<text text-anchor="middle" x="537.5" y="-190.8" font-family="Helvetica,sans-Serif" font-size="9.00" fill="#000000">RefillShield.js</text>
</a>
</g>
</g>
<!-- src/server/Emitter/Emitter.js&#45;&gt;src/server/PowerUp/RefillShield.js -->
<g id="edge14" class="edge">
<title>src/server/Emitter/Emitter.js&#45;&gt;src/server/PowerUp/RefillShield.js</title>
<path fill="none" stroke="#000000" stroke-width="2" stroke-opacity="0.466667" d="M467.7008,-213.985C473.871,-211.9805 480.4023,-209.8905 486.5,-208 489.7727,-206.9854 493.1687,-205.9496 496.5835,-204.9201"/>
<polygon fill="#000000" fill-opacity="0.466667" stroke="#000000" stroke-width="2" stroke-opacity="0.466667" points="497.589,-208.2726 506.1699,-202.0582 495.5865,-201.5651 497.589,-208.2726"/>
</g>
<!-- src/server/Game.js -->
<g id="node6" class="node">
<title>src/server/Game.js</title>
<g id="a_node6"><a xlink:href="https://github.com/deetzen/rocket-wars/tree/develop/src/server/Game.js" xlink:title="Game.js">
<path fill="#ffffcc" stroke="#000000" d="M141.5,-146C141.5,-146 99.5,-146 99.5,-146 96.5,-146 93.5,-143 93.5,-140 93.5,-140 93.5,-134 93.5,-134 93.5,-131 96.5,-128 99.5,-128 99.5,-128 141.5,-128 141.5,-128 144.5,-128 147.5,-131 147.5,-134 147.5,-134 147.5,-140 147.5,-140 147.5,-143 144.5,-146 141.5,-146"/>
<text text-anchor="middle" x="120.5" y="-134.8" font-family="Helvetica,sans-Serif" font-size="9.00" fill="#000000">Game.js</text>
</a>
</g>
</g>
<!-- src/server/Object/FlyingObjects.js -->
<g id="node12" class="node">
<title>src/server/Object/FlyingObjects.js</title>
<g id="a_node12"><a xlink:href="https://github.com/deetzen/rocket-wars/tree/develop/src/server/Object/FlyingObjects.js" xlink:title="FlyingObjects.js">
<path fill="#ffffcc" stroke="#000000" d="M756.5,-98C756.5,-98 687.5,-98 687.5,-98 684.5,-98 681.5,-95 681.5,-92 681.5,-92 681.5,-86 681.5,-86 681.5,-83 684.5,-80 687.5,-80 687.5,-80 756.5,-80 756.5,-80 759.5,-80 762.5,-83 762.5,-86 762.5,-86 762.5,-92 762.5,-92 762.5,-95 759.5,-98 756.5,-98"/>
<text text-anchor="middle" x="722" y="-86.8" font-family="Helvetica,sans-Serif" font-size="9.00" fill="#000000">FlyingObjects.js</text>
</a>
</g>
</g>
<!-- src/server/Game.js&#45;&gt;src/server/Object/FlyingObjects.js -->
<g id="edge15" class="edge">
<title>src/server/Game.js&#45;&gt;src/server/Object/FlyingObjects.js</title>
<path fill="none" stroke="#000000" stroke-width="2" stroke-opacity="0.466667" d="M121.6562,-127.7352C124.3891,-110.2866 133.016,-72.8814 158,-57 218.5754,-18.4945 262.9244,-12.8271 319.5,-57 331.055,-66.0219 316.1883,-79.6748 327.5,-89 366.3064,-120.9913 390.207,-95 440.5,-95 440.5,-95 440.5,-95 537.5,-95 582.7593,-95 634.2307,-93.1741 671.2872,-91.5368"/>
<polygon fill="#000000" fill-opacity="0.466667" stroke="#000000" stroke-width="2" stroke-opacity="0.466667" points="671.5082,-95.0305 681.3396,-91.0817 671.1915,-88.0376 671.5082,-95.0305"/>
</g>
<!-- src/server/Player/Players.js -->
<g id="node14" class="node">
<title>src/server/Player/Players.js</title>
<g id="a_node14"><a xlink:href="https://github.com/deetzen/rocket-wars/tree/develop/src/server/Player/Players.js" xlink:title="Players.js">
<path fill="#ffffcc" stroke="#000000" d="M216,-206C216,-206 172,-206 172,-206 169,-206 166,-203 166,-200 166,-200 166,-194 166,-194 166,-191 169,-188 172,-188 172,-188 216,-188 216,-188 219,-188 222,-191 222,-194 222,-194 222,-200 222,-200 222,-203 219,-206 216,-206"/>
<text text-anchor="middle" x="194" y="-194.8" font-family="Helvetica,sans-Serif" font-size="9.00" fill="#000000">Players.js</text>
</a>
</g>
</g>
<!-- src/server/Game.js&#45;&gt;src/server/Player/Players.js -->
<g id="edge16" class="edge">
<title>src/server/Game.js&#45;&gt;src/server/Player/Players.js</title>
<path fill="none" stroke="#000000" stroke-width="2" stroke-opacity="0.466667" d="M128.2885,-146.0676C135.5161,-154.1828 146.8144,-166.133 158,-175 161.3579,-177.6618 165.061,-180.256 168.7762,-182.6743"/>
<polygon fill="#000000" fill-opacity="0.466667" stroke="#000000" stroke-width="2" stroke-opacity="0.466667" points="166.9634,-185.6684 177.3103,-187.9473 170.6429,-179.7134 166.9634,-185.6684"/>
</g>
<!-- src/server/Sound/Sound.js -->
<g id="node21" class="node">
<title>src/server/Sound/Sound.js</title>
<g id="a_node21"><a xlink:href="https://github.com/deetzen/rocket-wars/tree/develop/src/server/Sound/Sound.js" xlink:title="Sound.js">
<path fill="#ffffcc" stroke="#000000" d="M215,-86C215,-86 173,-86 173,-86 170,-86 167,-83 167,-80 167,-80 167,-74 167,-74 167,-71 170,-68 173,-68 173,-68 215,-68 215,-68 218,-68 221,-71 221,-74 221,-74 221,-80 221,-80 221,-83 218,-86 215,-86"/>
<text text-anchor="middle" x="194" y="-74.8" font-family="Helvetica,sans-Serif" font-size="9.00" fill="#000000">Sound.js</text>
</a>
</g>
</g>
<!-- src/server/Game.js&#45;&gt;src/server/Sound/Sound.js -->
<g id="edge17" class="edge">
<title>src/server/Game.js&#45;&gt;src/server/Sound/Sound.js</title>
<path fill="none" stroke="#000000" stroke-width="2" stroke-opacity="0.466667" d="M131.6631,-127.8873C143.1034,-118.5483 161.1111,-103.8481 174.8363,-92.6438"/>
<polygon fill="#000000" fill-opacity="0.466667" stroke="#000000" stroke-width="2" stroke-opacity="0.466667" points="177.1986,-95.2336 182.7319,-86.1985 172.7719,-89.8109 177.1986,-95.2336"/>
</g>
<!-- src/server/Stage/Stage.js -->
<g id="node22" class="node">
<title>src/server/Stage/Stage.js</title>
<g id="a_node22"><a xlink:href="https://github.com/deetzen/rocket-wars/tree/develop/src/server/Stage/Stage.js" xlink:title="Stage.js">
<path fill="#ffffcc" stroke="#000000" d="M215,-146C215,-146 173,-146 173,-146 170,-146 167,-143 167,-140 167,-140 167,-134 167,-134 167,-131 170,-128 173,-128 173,-128 215,-128 215,-128 218,-128 221,-131 221,-134 221,-134 221,-140 221,-140 221,-143 218,-146 215,-146"/>
<text text-anchor="middle" x="194" y="-134.8" font-family="Helvetica,sans-Serif" font-size="9.00" fill="#000000">Stage.js</text>
</a>
</g>
</g>
<!-- src/server/Game.js&#45;&gt;src/server/Stage/Stage.js -->
<g id="edge18" class="edge">
<title>src/server/Game.js&#45;&gt;src/server/Stage/Stage.js</title>
<path fill="none" stroke="#000000" stroke-width="2" stroke-opacity="0.466667" d="M147.8687,-137C150.7767,-137 153.7688,-137 156.7651,-137"/>
<polygon fill="#000000" fill-opacity="0.466667" stroke="#000000" stroke-width="2" stroke-opacity="0.466667" points="156.8532,-140.5001 166.8532,-137 156.8531,-133.5001 156.8532,-140.5001"/>
</g>
<!-- src/server/Keyboard/Keyboard.js -->
<g id="node7" class="node">
<title>src/server/Keyboard/Keyboard.js</title>
<g id="a_node7"><a xlink:href="https://github.com/deetzen/rocket-wars/tree/develop/src/server/Keyboard/Keyboard.js" xlink:title="Keyboard.js">
<path fill="#ffffcc" stroke="#000000" d="M305.5,-86C305.5,-86 252.5,-86 252.5,-86 249.5,-86 246.5,-83 246.5,-80 246.5,-80 246.5,-74 246.5,-74 246.5,-71 249.5,-68 252.5,-68 252.5,-68 305.5,-68 305.5,-68 308.5,-68 311.5,-71 311.5,-74 311.5,-74 311.5,-80 311.5,-80 311.5,-83 308.5,-86 305.5,-86"/>
<text text-anchor="middle" x="279" y="-74.8" font-family="Helvetica,sans-Serif" font-size="9.00" fill="#000000">Keyboard.js</text>
</a>
</g>
</g>
<!-- src/server/Listener.js -->
<g id="node8" class="node">
<title>src/server/Listener.js</title>
<g id="a_node8"><a xlink:href="https://github.com/deetzen/rocket-wars/tree/develop/src/server/Listener.js" xlink:title="Listener.js">
<path fill="#ffffcc" stroke="#000000" d="M144,-206C144,-206 97,-206 97,-206 94,-206 91,-203 91,-200 91,-200 91,-194 91,-194 91,-191 94,-188 97,-188 97,-188 144,-188 144,-188 147,-188 150,-191 150,-194 150,-194 150,-200 150,-200 150,-203 147,-206 144,-206"/>
<text text-anchor="middle" x="120.5" y="-194.8" font-family="Helvetica,sans-Serif" font-size="9.00" fill="#000000">Listener.js</text>
</a>
</g>
</g>
<!-- src/server/Player/Player.js -->
<g id="node13" class="node">
<title>src/server/Player/Player.js</title>
<g id="a_node13"><a xlink:href="https://github.com/deetzen/rocket-wars/tree/develop/src/server/Player/Player.js" xlink:title="Player.js">
<path fill="#ffffcc" stroke="#000000" d="M215,-236C215,-236 173,-236 173,-236 170,-236 167,-233 167,-230 167,-230 167,-224 167,-224 167,-221 170,-218 173,-218 173,-218 215,-218 215,-218 218,-218 221,-221 221,-224 221,-224 221,-230 221,-230 221,-233 218,-236 215,-236"/>
<text text-anchor="middle" x="194" y="-224.8" font-family="Helvetica,sans-Serif" font-size="9.00" fill="#000000">Player.js</text>
</a>
</g>
</g>
<!-- src/server/Listener.js&#45;&gt;src/server/Player/Player.js -->
<g id="edge19" class="edge">
<title>src/server/Listener.js&#45;&gt;src/server/Player/Player.js</title>
<path fill="none" stroke="#000000" stroke-width="2" stroke-opacity="0.466667" d="M142.5524,-206.001C148.7458,-208.5289 155.6061,-211.329 162.2447,-214.0387"/>
<polygon fill="#000000" fill-opacity="0.466667" stroke="#000000" stroke-width="2" stroke-opacity="0.466667" points="161.128,-217.3631 171.7091,-217.9017 163.7733,-210.8822 161.128,-217.3631"/>
</g>
<!-- src/server/Luminary/Asteroid.js&#45;&gt;src/server/Object/FlyingObject.js -->
<g id="edge20" class="edge">
<title>src/server/Luminary/Asteroid.js&#45;&gt;src/server/Object/FlyingObject.js</title>
<path fill="none" stroke="#000000" stroke-width="2" stroke-opacity="0.466667" d="M642.83,-279.9556C650.6137,-275.1831 659.3986,-268.7112 665.5,-261 695.4402,-223.1604 711.3549,-167.4219 718.0618,-138.3107"/>
<polygon fill="#000000" fill-opacity="0.466667" stroke="#000000" stroke-width="2" stroke-opacity="0.466667" points="721.5491,-138.7452 720.2572,-128.2294 714.7094,-137.2556 721.5491,-138.7452"/>
</g>
<!-- src/server/Luminary/Asteroid.js&#45;&gt;src/server/Skin/Skin.js -->
<g id="edge21" class="edge">
<title>src/server/Luminary/Asteroid.js&#45;&gt;src/server/Skin/Skin.js</title>
<path fill="none" stroke="#000000" stroke-width="2" stroke-opacity="0.466667" d="M650.4373,-279.9318C680.2201,-268.5584 730.9701,-247.4319 770.5,-222 779.867,-215.9737 789.3498,-208.0509 797.018,-201.0833"/>
<polygon fill="#000000" fill-opacity="0.466667" stroke="#000000" stroke-width="2" stroke-opacity="0.466667" points="799.6359,-203.4266 804.5353,-194.0326 794.8471,-198.3209 799.6359,-203.4266"/>
</g>
<!-- src/server/Luminary/Planet.js&#45;&gt;src/server/Luminary/Asteroid.js -->
<g id="edge23" class="edge">
<title>src/server/Luminary/Planet.js&#45;&gt;src/server/Luminary/Asteroid.js</title>
<path fill="none" stroke="#000000" stroke-width="2" stroke-opacity="0.466667" d="M564.8614,-289C571.4378,-289 578.5957,-289 585.613,-289"/>
<polygon fill="#000000" fill-opacity="0.466667" stroke="#000000" stroke-width="2" stroke-opacity="0.466667" points="585.7092,-292.5001 595.7091,-289 585.7091,-285.5001 585.7092,-292.5001"/>
</g>
<!-- src/server/Luminary/Planet.js&#45;&gt;src/server/Skin/Skin.js -->
<g id="edge22" class="edge">
<title>src/server/Luminary/Planet.js&#45;&gt;src/server/Skin/Skin.js</title>
<path fill="none" stroke="#000000" stroke-width="2" stroke-opacity="0.466667" d="M564.8184,-297.7602C590.9752,-304.8496 631.3897,-312.3928 665.5,-304 716.6555,-291.4132 731.2734,-284.165 770.5,-249 784.9371,-236.0578 796.8026,-217.2729 804.3849,-203.3999"/>
<polygon fill="#000000" fill-opacity="0.466667" stroke="#000000" stroke-width="2" stroke-opacity="0.466667" points="807.5997,-204.8047 809.1245,-194.3202 801.3943,-201.5655 807.5997,-204.8047"/>
</g>
<!-- src/server/Object/FlyingObject.js&#45;&gt;src/server/Skin/Skin.js -->
<g id="edge24" class="edge">
<title>src/server/Object/FlyingObject.js&#45;&gt;src/server/Skin/Skin.js</title>
<path fill="none" stroke="#000000" stroke-width="2" stroke-opacity="0.466667" d="M734.7227,-128.177C749.6091,-138.9148 774.4851,-156.8581 792.302,-169.7097"/>
<polygon fill="#000000" fill-opacity="0.466667" stroke="#000000" stroke-width="2" stroke-opacity="0.466667" points="790.7275,-172.8894 800.8854,-175.9009 794.8226,-167.2122 790.7275,-172.8894"/>
</g>
<!-- src/server/Player/Player.js&#45;&gt;src/server/Character/Character.js -->
<g id="edge25" class="edge">
<title>src/server/Player/Player.js&#45;&gt;src/server/Character/Character.js</title>
<path fill="none" stroke="#000000" stroke-width="2" stroke-opacity="0.466667" d="M220.9891,-217.8925C224.1992,-216.2056 227.2923,-214.2505 230,-212 248.6225,-196.5223 262.717,-172.1314 270.9034,-155.3929"/>
<polygon fill="#000000" fill-opacity="0.466667" stroke="#000000" stroke-width="2" stroke-opacity="0.466667" points="274.1784,-156.6509 275.2248,-146.1079 267.8321,-153.6972 274.1784,-156.6509"/>
</g>
<!-- src/server/Player/Player.js&#45;&gt;src/server/Keyboard/Keyboard.js -->
<g id="edge26" class="edge">
<title>src/server/Player/Player.js&#45;&gt;src/server/Keyboard/Keyboard.js</title>
<path fill="none" stroke="#000000" stroke-width="2" stroke-opacity="0.466667" d="M221.1415,-219.6556C224.5732,-217.6785 227.6864,-215.1732 230,-212 242.4817,-194.8814 228.9593,-136.16 238,-117 242.4253,-107.6214 250.0486,-99.2462 257.5301,-92.6132"/>
<polygon fill="#000000" fill-opacity="0.466667" stroke="#000000" stroke-width="2" stroke-opacity="0.466667" points="259.9193,-95.1804 265.4348,-86.1344 255.482,-89.7665 259.9193,-95.1804"/>
</g>
<!-- src/server/PowerUp/PowerUp.js -->
<g id="node16" class="node">
<title>src/server/PowerUp/PowerUp.js</title>
<g id="a_node16"><a xlink:href="https://github.com/deetzen/rocket-wars/tree/develop/src/server/PowerUp/PowerUp.js" xlink:title="PowerUp.js">
<path fill="#ffffcc" stroke="#000000" d="M651.5,-172C651.5,-172 599.5,-172 599.5,-172 596.5,-172 593.5,-169 593.5,-166 593.5,-166 593.5,-160 593.5,-160 593.5,-157 596.5,-154 599.5,-154 599.5,-154 651.5,-154 651.5,-154 654.5,-154 657.5,-157 657.5,-160 657.5,-160 657.5,-166 657.5,-166 657.5,-169 654.5,-172 651.5,-172"/>
<text text-anchor="middle" x="625.5" y="-160.8" font-family="Helvetica,sans-Serif" font-size="9.00" fill="#000000">PowerUp.js</text>
</a>
</g>
</g>
<!-- src/server/PowerUp/PermanentFire.js&#45;&gt;src/server/PowerUp/PowerUp.js -->
<g id="edge28" class="edge">
<title>src/server/PowerUp/PermanentFire.js&#45;&gt;src/server/PowerUp/PowerUp.js</title>
<path fill="none" stroke="#000000" stroke-width="2" stroke-opacity="0.466667" d="M568.8129,-213.9603C572.88,-212.2494 576.8838,-210.2698 580.5,-208 592.3933,-200.5349 603.5688,-189.3908 611.8078,-180.0606"/>
<polygon fill="#000000" fill-opacity="0.466667" stroke="#000000" stroke-width="2" stroke-opacity="0.466667" points="614.7035,-182.0565 618.485,-172.1595 609.357,-177.5381 614.7035,-182.0565"/>
</g>
<!-- src/server/PowerUp/PermanentFire.js&#45;&gt;src/server/Skin/Skin.js -->
<g id="edge27" class="edge">
<title>src/server/PowerUp/PermanentFire.js&#45;&gt;src/server/Skin/Skin.js</title>
<path fill="none" stroke="#000000" stroke-width="2" stroke-opacity="0.466667" d="M580.5976,-218.7123C627.4799,-213.7975 704.5566,-204.9856 770.5,-194 772.4185,-193.6804 774.3814,-193.3352 776.3608,-192.9726"/>
<polygon fill="#000000" fill-opacity="0.466667" stroke="#000000" stroke-width="2" stroke-opacity="0.466667" points="777.1154,-196.3916 786.2671,-191.0534 775.7839,-189.5194 777.1154,-196.3916"/>
</g>
<!-- src/server/PowerUp/PowerUp.js&#45;&gt;src/server/Object/FlyingObject.js -->
<g id="edge29" class="edge">
<title>src/server/PowerUp/PowerUp.js&#45;&gt;src/server/Object/FlyingObject.js</title>
<path fill="none" stroke="#000000" stroke-width="2" stroke-opacity="0.466667" d="M645.4949,-153.8832C659.0807,-147.6886 677.2811,-139.39 692.5214,-132.441"/>
<polygon fill="#000000" fill-opacity="0.466667" stroke="#000000" stroke-width="2" stroke-opacity="0.466667" points="694.384,-135.4385 702.0308,-128.1051 691.4799,-129.0693 694.384,-135.4385"/>
</g>
<!-- src/server/PowerUp/RefillAmmo.js&#45;&gt;src/server/PowerUp/PowerUp.js -->
<g id="edge31" class="edge">
<title>src/server/PowerUp/RefillAmmo.js&#45;&gt;src/server/PowerUp/PowerUp.js</title>
<path fill="none" stroke="#000000" stroke-width="2" stroke-opacity="0.466667" d="M574.0554,-163C577.0658,-163 580.1242,-163 583.1718,-163"/>
<polygon fill="#000000" fill-opacity="0.466667" stroke="#000000" stroke-width="2" stroke-opacity="0.466667" points="583.4071,-166.5001 593.4071,-163 583.407,-159.5001 583.4071,-166.5001"/>
</g>
<!-- src/server/PowerUp/RefillAmmo.js&#45;&gt;src/server/Skin/Skin.js -->
<g id="edge30" class="edge">
<title>src/server/PowerUp/RefillAmmo.js&#45;&gt;src/server/Skin/Skin.js</title>
<path fill="none" stroke="#000000" stroke-width="2" stroke-opacity="0.466667" d="M566.2988,-172.0708C574.9572,-174.4281 584.5389,-176.6753 593.5,-178 657.0607,-187.3958 732.0304,-187.4691 776.0048,-186.4127"/>
<polygon fill="#000000" fill-opacity="0.466667" stroke="#000000" stroke-width="2" stroke-opacity="0.466667" points="776.3258,-189.9053 786.2263,-186.1329 776.1342,-182.9079 776.3258,-189.9053"/>
</g>
<!-- src/server/PowerUp/RefillShield.js&#45;&gt;src/server/PowerUp/PowerUp.js -->
<g id="edge33" class="edge">
<title>src/server/PowerUp/RefillShield.js&#45;&gt;src/server/PowerUp/PowerUp.js</title>
<path fill="none" stroke="#000000" stroke-width="2" stroke-opacity="0.466667" d="M563.9029,-183.999C571.8355,-181.2947 580.6817,-178.279 589.1394,-175.3956"/>
<polygon fill="#000000" fill-opacity="0.466667" stroke="#000000" stroke-width="2" stroke-opacity="0.466667" points="590.4759,-178.6379 598.8116,-172.0983 588.2171,-172.0123 590.4759,-178.6379"/>
</g>
<!-- src/server/PowerUp/RefillShield.js&#45;&gt;src/server/Skin/Skin.js -->
<g id="edge32" class="edge">
<title>src/server/PowerUp/RefillShield.js&#45;&gt;src/server/Skin/Skin.js</title>
<path fill="none" stroke="#000000" stroke-width="2" stroke-opacity="0.466667" d="M574.2542,-193.2261C620.1953,-193.3114 701.2204,-192.8115 770.5,-189 772.2499,-188.9037 774.0387,-188.7917 775.8448,-188.6676"/>
<polygon fill="#000000" fill-opacity="0.466667" stroke="#000000" stroke-width="2" stroke-opacity="0.466667" points="776.5318,-192.1244 786.2262,-187.8501 775.9823,-185.146 776.5318,-192.1244"/>
</g>
<!-- src/server/Server.js -->
<g id="node19" class="node">
<title>src/server/Server.js</title>
<g id="a_node19"><a xlink:href="https://github.com/deetzen/rocket-wars/tree/develop/src/server/Server.js" xlink:title="Server.js">
<path fill="#ffffcc" stroke="#000000" d="M141.5,-236C141.5,-236 99.5,-236 99.5,-236 96.5,-236 93.5,-233 93.5,-230 93.5,-230 93.5,-224 93.5,-224 93.5,-221 96.5,-218 99.5,-218 99.5,-218 141.5,-218 141.5,-218 144.5,-218 147.5,-221 147.5,-224 147.5,-224 147.5,-230 147.5,-230 147.5,-233 144.5,-236 141.5,-236"/>
<text text-anchor="middle" x="120.5" y="-224.8" font-family="Helvetica,sans-Serif" font-size="9.00" fill="#000000">Server.js</text>
</a>
</g>
</g>
<!-- src/server/Timer.js -->
<g id="node23" class="node">
<title>src/server/Timer.js</title>
<g id="a_node23"><a xlink:href="https://github.com/deetzen/rocket-wars/tree/develop/src/server/Timer.js" xlink:title="Timer.js">
<path fill="#ffffcc" stroke="#000000" d="M141.5,-266C141.5,-266 99.5,-266 99.5,-266 96.5,-266 93.5,-263 93.5,-260 93.5,-260 93.5,-254 93.5,-254 93.5,-251 96.5,-248 99.5,-248 99.5,-248 141.5,-248 141.5,-248 144.5,-248 147.5,-251 147.5,-254 147.5,-254 147.5,-260 147.5,-260 147.5,-263 144.5,-266 141.5,-266"/>
<text text-anchor="middle" x="120.5" y="-254.8" font-family="Helvetica,sans-Serif" font-size="9.00" fill="#000000">Timer.js</text>
</a>
</g>
</g>
<!-- src/server/Weapon/Weapon.js -->
<g id="node25" class="node">
<title>src/server/Weapon/Weapon.js</title>
<g id="a_node25"><a xlink:href="https://github.com/deetzen/rocket-wars/tree/develop/src/server/Weapon/Weapon.js" xlink:title="Weapon.js">
<path fill="#ffffcc" stroke="#000000" d="M464.5,-60C464.5,-60 416.5,-60 416.5,-60 413.5,-60 410.5,-57 410.5,-54 410.5,-54 410.5,-48 410.5,-48 410.5,-45 413.5,-42 416.5,-42 416.5,-42 464.5,-42 464.5,-42 467.5,-42 470.5,-45 470.5,-48 470.5,-48 470.5,-54 470.5,-54 470.5,-57 467.5,-60 464.5,-60"/>
<text text-anchor="middle" x="440.5" y="-48.8" font-family="Helvetica,sans-Serif" font-size="9.00" fill="#000000">Weapon.js</text>
</a>
</g>
</g>
<!-- src/server/Weapon/Canon.js&#45;&gt;src/server/Weapon/Weapon.js -->
<g id="edge34" class="edge">
<title>src/server/Weapon/Canon.js&#45;&gt;src/server/Weapon/Weapon.js</title>
<path fill="none" stroke="#000000" stroke-width="2" stroke-opacity="0.466667" d="M389.7806,-51C393.2237,-51 396.8012,-51 400.3913,-51"/>
<polygon fill="#000000" fill-opacity="0.466667" stroke="#000000" stroke-width="2" stroke-opacity="0.466667" points="400.4408,-54.5001 410.4408,-51 400.4408,-47.5001 400.4408,-54.5001"/>
</g>
<!-- src/server/Weapon/Weapon.js&#45;&gt;src/server/Ammo/Bullet.js -->
<g id="edge35" class="edge">
<title>src/server/Weapon/Weapon.js&#45;&gt;src/server/Ammo/Bullet.js</title>
<path fill="none" stroke="#000000" stroke-width="2" stroke-opacity="0.466667" d="M470.6597,-51C479.9716,-51 490.3414,-51 500.0812,-51"/>
<polygon fill="#000000" fill-opacity="0.466667" stroke="#000000" stroke-width="2" stroke-opacity="0.466667" points="500.3229,-54.5001 510.3229,-51 500.3228,-47.5001 500.3229,-54.5001"/>
</g>
<!-- src/server/index.js -->
<g id="node26" class="node">
<title>src/server/index.js</title>
<g id="a_node26"><a xlink:href="https://github.com/deetzen/rocket-wars/tree/develop/src/server/index.js" xlink:title="index.js">
<path fill="#ffffcc" stroke="#000000" d="M72,-221C72,-221 30,-221 30,-221 27,-221 24,-218 24,-215 24,-215 24,-209 24,-209 24,-206 27,-203 30,-203 30,-203 72,-203 72,-203 75,-203 78,-206 78,-209 78,-209 78,-215 78,-215 78,-218 75,-221 72,-221"/>
<text text-anchor="middle" x="51" y="-209.8" font-family="Helvetica,sans-Serif" font-size="9.00" fill="#000000">index.js</text>
</a>
</g>
</g>
<!-- src/server/index.js&#45;&gt;src/server/Game.js -->
<g id="edge36" class="edge">
<title>src/server/index.js&#45;&gt;src/server/Game.js</title>
<path fill="none" stroke="#000000" stroke-width="2" stroke-opacity="0.466667" d="M59.5221,-202.8035C70.7768,-190.6582 90.807,-169.0428 104.8297,-153.9104"/>
<polygon fill="#000000" fill-opacity="0.466667" stroke="#000000" stroke-width="2" stroke-opacity="0.466667" points="107.6784,-155.9856 111.9082,-146.2717 102.544,-151.2277 107.6784,-155.9856"/>
</g>
<!-- src/server/index.js&#45;&gt;src/server/Listener.js -->
<g id="edge37" class="edge">
<title>src/server/index.js&#45;&gt;src/server/Listener.js</title>
<path fill="none" stroke="#000000" stroke-width="2" stroke-opacity="0.466667" d="M78.0695,-206.1577C78.97,-205.9633 79.8777,-205.7674 80.79,-205.5705"/>
<polygon fill="#000000" fill-opacity="0.466667" stroke="#000000" stroke-width="2" stroke-opacity="0.466667" points="81.589,-208.9787 90.6256,-203.4477 80.1122,-202.1363 81.589,-208.9787"/>
</g>
<!-- src/server/index.js&#45;&gt;src/server/Server.js -->
<g id="edge38" class="edge">
<title>src/server/index.js&#45;&gt;src/server/Server.js</title>
<path fill="none" stroke="#000000" stroke-width="2" stroke-opacity="0.466667" d="M78.0695,-217.8423C79.799,-218.2156 81.5551,-218.5946 83.3196,-218.9755"/>
<polygon fill="#000000" fill-opacity="0.466667" stroke="#000000" stroke-width="2" stroke-opacity="0.466667" points="82.8767,-222.4604 93.39,-221.1489 84.3535,-215.6179 82.8767,-222.4604"/>
</g>
<!-- src/server/index.js&#45;&gt;src/server/Timer.js -->
<g id="edge39" class="edge">
<title>src/server/index.js&#45;&gt;src/server/Timer.js</title>
<path fill="none" stroke="#000000" stroke-width="2" stroke-opacity="0.466667" d="M62.1796,-221.2097C70.0021,-227.4448 80.8312,-235.6678 91,-242 91.5182,-242.3227 92.0442,-242.6444 92.5765,-242.9648"/>
<polygon fill="#000000" fill-opacity="0.466667" stroke="#000000" stroke-width="2" stroke-opacity="0.466667" points="91.0676,-246.131 101.5044,-247.9542 94.4825,-240.0204 91.0676,-246.131"/>
</g>
</g>
</svg>
