<?xml version="1.0" encoding="UTF-8" standalone="no"?>
<!DOCTYPE svg PUBLIC "-//W3C//DTD SVG 1.1//EN"
 "http://www.w3.org/Graphics/SVG/1.1/DTD/svg11.dtd">
<!-- Generated by graphviz version 2.40.1 (20161225.0304)
 -->
<!-- Title: G Pages: 1 -->
<svg width="1548pt" height="494pt"
 viewBox="0.00 0.00 1548.20 494.44" xmlns="http://www.w3.org/2000/svg" xmlns:xlink="http://www.w3.org/1999/xlink">
<g id="graph0" class="graph" transform="scale(1 1) rotate(0) translate(21.6 472.8436)">
<title>G</title>
<polygon fill="#111111" stroke="transparent" points="-21.6,21.6 -21.6,-472.8436 1526.6,-472.8436 1526.6,21.6 -21.6,21.6"/>
<!-- ../player/Keyboard.js -->
<g id="node1" class="node">
<title>../player/Keyboard.js</title>
<path fill="none" stroke="#cfffac" d="M416.3333,-228.6963C416.3333,-228.6963 282.6667,-228.6963 282.6667,-228.6963 278.8333,-228.6963 275,-224.863 275,-221.0297 275,-221.0297 275,-213.363 275,-213.363 275,-209.5297 278.8333,-205.6963 282.6667,-205.6963 282.6667,-205.6963 416.3333,-205.6963 416.3333,-205.6963 420.1667,-205.6963 424,-209.5297 424,-213.363 424,-213.363 424,-221.0297 424,-221.0297 424,-224.863 420.1667,-228.6963 416.3333,-228.6963"/>
<text text-anchor="middle" x="349.5" y="-213.4963" font-family="Arial" font-size="14.00" fill="#cfffac">../player/Keyboard.js</text>
</g>
<!-- ../player/Player.js -->
<g id="node2" class="node">
<title>../player/Player.js</title>
<path fill="none" stroke="#c6c5fe" d="M226.3333,-267.6963C226.3333,-267.6963 114.6667,-267.6963 114.6667,-267.6963 110.8333,-267.6963 107,-263.863 107,-260.0297 107,-260.0297 107,-252.363 107,-252.363 107,-248.5297 110.8333,-244.6963 114.6667,-244.6963 114.6667,-244.6963 226.3333,-244.6963 226.3333,-244.6963 230.1667,-244.6963 234,-248.5297 234,-252.363 234,-252.363 234,-260.0297 234,-260.0297 234,-263.863 230.1667,-267.6963 226.3333,-267.6963"/>
<text text-anchor="middle" x="170.5" y="-252.4963" font-family="Arial" font-size="14.00" fill="#c6c5fe">../player/Player.js</text>
</g>
<!-- ../player/Player.js&#45;&gt;../player/Keyboard.js -->
<g id="edge1" class="edge">
<title>../player/Player.js&#45;&gt;../player/Keyboard.js</title>
<path fill="none" stroke="#757575" d="M223.7213,-244.6006C243.4708,-240.2977 266.0575,-235.3766 286.5904,-230.9029"/>
<polygon fill="#757575" stroke="#757575" points="287.4581,-234.296 296.4838,-228.7473 285.9679,-227.4565 287.4581,-234.296"/>
</g>
<!-- ../utils/Color.js -->
<g id="node3" class="node">
<title>../utils/Color.js</title>
<path fill="none" stroke="#cfffac" d="M394.8333,-269.6963C394.8333,-269.6963 304.1667,-269.6963 304.1667,-269.6963 300.3333,-269.6963 296.5,-265.863 296.5,-262.0297 296.5,-262.0297 296.5,-254.363 296.5,-254.363 296.5,-250.5297 300.3333,-246.6963 304.1667,-246.6963 304.1667,-246.6963 394.8333,-246.6963 394.8333,-246.6963 398.6667,-246.6963 402.5,-250.5297 402.5,-254.363 402.5,-254.363 402.5,-262.0297 402.5,-262.0297 402.5,-265.863 398.6667,-269.6963 394.8333,-269.6963"/>
<text text-anchor="middle" x="349.5" y="-254.4963" font-family="Arial" font-size="14.00" fill="#cfffac">../utils/Color.js</text>
</g>
<!-- ../player/Player.js&#45;&gt;../utils/Color.js -->
<g id="edge2" class="edge">
<title>../player/Player.js&#45;&gt;../utils/Color.js</title>
<path fill="none" stroke="#757575" d="M234.1127,-256.9071C251.0056,-257.0958 269.2448,-257.2996 286.1251,-257.4882"/>
<polygon fill="#757575" stroke="#757575" points="286.3971,-260.9914 296.4356,-257.6034 286.4754,-253.9918 286.3971,-260.9914"/>
</g>
<!-- character/Character.js -->
<g id="node4" class="node">
<title>character/Character.js</title>
<path fill="none" stroke="#c6c5fe" d="M421.3333,-311.6963C421.3333,-311.6963 277.6667,-311.6963 277.6667,-311.6963 273.8333,-311.6963 270,-307.863 270,-304.0297 270,-304.0297 270,-296.363 270,-296.363 270,-292.5297 273.8333,-288.6963 277.6667,-288.6963 277.6667,-288.6963 421.3333,-288.6963 421.3333,-288.6963 425.1667,-288.6963 429,-292.5297 429,-296.363 429,-296.363 429,-304.0297 429,-304.0297 429,-307.863 425.1667,-311.6963 421.3333,-311.6963"/>
<text text-anchor="middle" x="349.5" y="-296.4963" font-family="Arial" font-size="14.00" fill="#c6c5fe">character/Character.js</text>
</g>
<!-- ../player/Player.js&#45;&gt;character/Character.js -->
<g id="edge3" class="edge">
<title>../player/Player.js&#45;&gt;character/Character.js</title>
<path fill="none" stroke="#757575" d="M217.5301,-267.7568C240.5633,-273.4186 268.4817,-280.2812 292.6976,-286.2337"/>
<polygon fill="#757575" stroke="#757575" points="291.9271,-289.6485 302.4735,-288.6367 293.5981,-282.8508 291.9271,-289.6485"/>
</g>
<!-- ../skin/Skin.js -->
<g id="node5" class="node">
<title>../skin/Skin.js</title>
<path fill="none" stroke="#cfffac" d="M1491.3333,-233.6963C1491.3333,-233.6963 1405.6667,-233.6963 1405.6667,-233.6963 1401.8333,-233.6963 1398,-229.863 1398,-226.0297 1398,-226.0297 1398,-218.363 1398,-218.363 1398,-214.5297 1401.8333,-210.6963 1405.6667,-210.6963 1405.6667,-210.6963 1491.3333,-210.6963 1491.3333,-210.6963 1495.1667,-210.6963 1499,-214.5297 1499,-218.363 1499,-218.363 1499,-226.0297 1499,-226.0297 1499,-229.863 1495.1667,-233.6963 1491.3333,-233.6963"/>
<text text-anchor="middle" x="1448.5" y="-218.4963" font-family="Arial" font-size="14.00" fill="#cfffac">../skin/Skin.js</text>
</g>
<!-- character/Character.js&#45;&gt;../skin/Skin.js -->
<g id="edge9" class="edge">
<title>character/Character.js&#45;&gt;../skin/Skin.js</title>
<path fill="none" stroke="#757575" d="M412.5245,-288.6803C482.7702,-276.8635 599.864,-260.1963 701.5,-260.1963 701.5,-260.1963 701.5,-260.1963 1117.5,-260.1963 1212.3491,-260.1963 1321.4947,-244.6054 1387.7066,-233.3967"/>
<polygon fill="#757575" stroke="#757575" points="1388.6915,-236.7789 1397.9558,-231.6384 1387.5079,-229.8797 1388.6915,-236.7789"/>
</g>
<!-- object/Object.js -->
<g id="node11" class="node">
<title>object/Object.js</title>
<path fill="none" stroke="#c6c5fe" d="M1348.3333,-350.6963C1348.3333,-350.6963 1247.6667,-350.6963 1247.6667,-350.6963 1243.8333,-350.6963 1240,-346.863 1240,-343.0297 1240,-343.0297 1240,-335.363 1240,-335.363 1240,-331.5297 1243.8333,-327.6963 1247.6667,-327.6963 1247.6667,-327.6963 1348.3333,-327.6963 1348.3333,-327.6963 1352.1667,-327.6963 1356,-331.5297 1356,-335.363 1356,-335.363 1356,-343.0297 1356,-343.0297 1356,-346.863 1352.1667,-350.6963 1348.3333,-350.6963"/>
<text text-anchor="middle" x="1298" y="-335.4963" font-family="Arial" font-size="14.00" fill="#c6c5fe">object/Object.js</text>
</g>
<!-- character/Character.js&#45;&gt;object/Object.js -->
<g id="edge11" class="edge">
<title>character/Character.js&#45;&gt;object/Object.js</title>
<path fill="none" stroke="#757575" d="M412.5245,-311.7123C482.7702,-323.5291 599.864,-340.1963 701.5,-340.1963 701.5,-340.1963 701.5,-340.1963 901.5,-340.1963 1016.6239,-340.1963 1150.5494,-339.7695 1229.578,-339.4736"/>
<polygon fill="#757575" stroke="#757575" points="1229.8974,-342.9725 1239.884,-339.4346 1229.8708,-335.9726 1229.8974,-342.9725"/>
</g>
<!-- character/Shield.js -->
<g id="node12" class="node">
<title>character/Shield.js</title>
<path fill="none" stroke="#c6c5fe" d="M1177.8333,-311.6963C1177.8333,-311.6963 1057.1667,-311.6963 1057.1667,-311.6963 1053.3333,-311.6963 1049.5,-307.863 1049.5,-304.0297 1049.5,-304.0297 1049.5,-296.363 1049.5,-296.363 1049.5,-292.5297 1053.3333,-288.6963 1057.1667,-288.6963 1057.1667,-288.6963 1177.8333,-288.6963 1177.8333,-288.6963 1181.6667,-288.6963 1185.5,-292.5297 1185.5,-296.363 1185.5,-296.363 1185.5,-304.0297 1185.5,-304.0297 1185.5,-307.863 1181.6667,-311.6963 1177.8333,-311.6963"/>
<text text-anchor="middle" x="1117.5" y="-296.4963" font-family="Arial" font-size="14.00" fill="#c6c5fe">character/Shield.js</text>
</g>
<!-- character/Character.js&#45;&gt;character/Shield.js -->
<g id="edge10" class="edge">
<title>character/Character.js&#45;&gt;character/Shield.js</title>
<path fill="none" stroke="#757575" d="M429.1561,-300.1963C576.9851,-300.1963 892.0728,-300.1963 1039.0141,-300.1963"/>
<polygon fill="#757575" stroke="#757575" points="1039.2987,-303.6964 1049.2987,-300.1963 1039.2986,-296.6964 1039.2987,-303.6964"/>
</g>
<!-- weapon/Canon.js -->
<g id="node13" class="node">
<title>weapon/Canon.js</title>
<path fill="none" stroke="#c6c5fe" d="M587.3333,-429.6963C587.3333,-429.6963 472.6667,-429.6963 472.6667,-429.6963 468.8333,-429.6963 465,-425.863 465,-422.0297 465,-422.0297 465,-414.363 465,-414.363 465,-410.5297 468.8333,-406.6963 472.6667,-406.6963 472.6667,-406.6963 587.3333,-406.6963 587.3333,-406.6963 591.1667,-406.6963 595,-410.5297 595,-414.363 595,-414.363 595,-422.0297 595,-422.0297 595,-425.863 591.1667,-429.6963 587.3333,-429.6963"/>
<text text-anchor="middle" x="530" y="-414.4963" font-family="Arial" font-size="14.00" fill="#c6c5fe">weapon/Canon.js</text>
</g>
<!-- character/Character.js&#45;&gt;weapon/Canon.js -->
<g id="edge12" class="edge">
<title>character/Character.js&#45;&gt;weapon/Canon.js</title>
<path fill="none" stroke="#757575" d="M367.1357,-311.7255C398.9473,-332.522 466.0934,-376.418 503.4709,-400.8532"/>
<polygon fill="#757575" stroke="#757575" points="502.0074,-404.078 512.2927,-406.6203 505.8377,-398.2189 502.0074,-404.078"/>
</g>
<!-- ../utils/Vector.js -->
<g id="node6" class="node">
<title>../utils/Vector.js</title>
<path fill="none" stroke="#cfffac" d="M1497.3333,-409.6963C1497.3333,-409.6963 1399.6667,-409.6963 1399.6667,-409.6963 1395.8333,-409.6963 1392,-405.863 1392,-402.0297 1392,-402.0297 1392,-394.363 1392,-394.363 1392,-390.5297 1395.8333,-386.6963 1399.6667,-386.6963 1399.6667,-386.6963 1497.3333,-386.6963 1497.3333,-386.6963 1501.1667,-386.6963 1505,-390.5297 1505,-394.363 1505,-394.363 1505,-402.0297 1505,-402.0297 1505,-405.863 1501.1667,-409.6963 1497.3333,-409.6963"/>
<text text-anchor="middle" x="1448.5" y="-394.4963" font-family="Arial" font-size="14.00" fill="#cfffac">../utils/Vector.js</text>
</g>
<!-- Game.js -->
<g id="node7" class="node">
<title>Game.js</title>
<path fill="none" stroke="#c6c5fe" d="M63.3333,-308.6963C63.3333,-308.6963 7.6667,-308.6963 7.6667,-308.6963 3.8333,-308.6963 0,-304.863 0,-301.0297 0,-301.0297 0,-293.363 0,-293.363 0,-289.5297 3.8333,-285.6963 7.6667,-285.6963 7.6667,-285.6963 63.3333,-285.6963 63.3333,-285.6963 67.1667,-285.6963 71,-289.5297 71,-293.363 71,-293.363 71,-301.0297 71,-301.0297 71,-304.863 67.1667,-308.6963 63.3333,-308.6963"/>
<text text-anchor="middle" x="35.5" y="-293.4963" font-family="Arial" font-size="14.00" fill="#c6c5fe">Game.js</text>
</g>
<!-- Game.js&#45;&gt;../player/Player.js -->
<g id="edge4" class="edge">
<title>Game.js&#45;&gt;../player/Player.js</title>
<path fill="none" stroke="#757575" d="M71.3231,-286.3167C87.1253,-281.5175 105.9231,-275.8086 122.8823,-270.658"/>
<polygon fill="#757575" stroke="#757575" points="124.0673,-273.9561 132.6186,-267.7011 122.033,-267.2581 124.0673,-273.9561"/>
</g>
<!-- Sound.js -->
<g id="node8" class="node">
<title>Sound.js</title>
<path fill="none" stroke="#cfffac" d="M199.8333,-349.6963C199.8333,-349.6963 141.1667,-349.6963 141.1667,-349.6963 137.3333,-349.6963 133.5,-345.863 133.5,-342.0297 133.5,-342.0297 133.5,-334.363 133.5,-334.363 133.5,-330.5297 137.3333,-326.6963 141.1667,-326.6963 141.1667,-326.6963 199.8333,-326.6963 199.8333,-326.6963 203.6667,-326.6963 207.5,-330.5297 207.5,-334.363 207.5,-334.363 207.5,-342.0297 207.5,-342.0297 207.5,-345.863 203.6667,-349.6963 199.8333,-349.6963"/>
<text text-anchor="middle" x="170.5" y="-334.4963" font-family="Arial" font-size="14.00" fill="#cfffac">Sound.js</text>
</g>
<!-- Game.js&#45;&gt;Sound.js -->
<g id="edge5" class="edge">
<title>Game.js&#45;&gt;Sound.js</title>
<path fill="none" stroke="#757575" d="M71.3231,-308.0759C87.2559,-312.9148 106.234,-318.6785 123.3024,-323.8622"/>
<polygon fill="#757575" stroke="#757575" points="122.5083,-327.2789 133.0938,-326.8359 124.5425,-320.5809 122.5083,-327.2789"/>
</g>
<!-- Stage.js -->
<g id="node9" class="node">
<title>Stage.js</title>
<path fill="none" stroke="#cfffac" d="M197.3333,-308.6963C197.3333,-308.6963 143.6667,-308.6963 143.6667,-308.6963 139.8333,-308.6963 136,-304.863 136,-301.0297 136,-301.0297 136,-293.363 136,-293.363 136,-289.5297 139.8333,-285.6963 143.6667,-285.6963 143.6667,-285.6963 197.3333,-285.6963 197.3333,-285.6963 201.1667,-285.6963 205,-289.5297 205,-293.363 205,-293.363 205,-301.0297 205,-301.0297 205,-304.863 201.1667,-308.6963 197.3333,-308.6963"/>
<text text-anchor="middle" x="170.5" y="-293.4963" font-family="Arial" font-size="14.00" fill="#cfffac">Stage.js</text>
</g>
<!-- Game.js&#45;&gt;Stage.js -->
<g id="edge6" class="edge">
<title>Game.js&#45;&gt;Stage.js</title>
<path fill="none" stroke="#757575" d="M71.3231,-297.1963C88.0395,-297.1963 108.108,-297.1963 125.8062,-297.1963"/>
<polygon fill="#757575" stroke="#757575" points="125.9095,-300.6964 135.9095,-297.1963 125.9094,-293.6964 125.9095,-300.6964"/>
</g>
<!-- object/Emitter.js -->
<g id="node10" class="node">
<title>object/Emitter.js</title>
<path fill="none" stroke="#c6c5fe" d="M753.3333,-142.6963C753.3333,-142.6963 649.6667,-142.6963 649.6667,-142.6963 645.8333,-142.6963 642,-138.863 642,-135.0297 642,-135.0297 642,-127.363 642,-127.363 642,-123.5297 645.8333,-119.6963 649.6667,-119.6963 649.6667,-119.6963 753.3333,-119.6963 753.3333,-119.6963 757.1667,-119.6963 761,-123.5297 761,-127.363 761,-127.363 761,-135.0297 761,-135.0297 761,-138.863 757.1667,-142.6963 753.3333,-142.6963"/>
<text text-anchor="middle" x="701.5" y="-127.4963" font-family="Arial" font-size="14.00" fill="#c6c5fe">object/Emitter.js</text>
</g>
<!-- Game.js&#45;&gt;object/Emitter.js -->
<g id="edge7" class="edge">
<title>Game.js&#45;&gt;object/Emitter.js</title>
<path fill="none" stroke="#757575" d="M45.8745,-285.228C58.7779,-271.1129 82.1559,-247.9605 107,-235.1963 280.4724,-146.0714 515.9675,-131.5693 631.5892,-130.2919"/>
<polygon fill="#757575" stroke="#757575" points="631.7538,-133.7908 641.7254,-130.2107 631.6977,-126.791 631.7538,-133.7908"/>
</g>
<!-- Game.js&#45;&gt;object/Object.js -->
<g id="edge8" class="edge">
<title>Game.js&#45;&gt;object/Object.js</title>
<path fill="none" stroke="#757575" d="M44.6906,-308.8083C57.0736,-323.4848 80.627,-348.1617 107,-359.1963 206.7303,-400.9243 241.3919,-378.1963 349.5,-378.1963 349.5,-378.1963 349.5,-378.1963 901.5,-378.1963 1017.0136,-378.1963 1150.5517,-361.5994 1229.4395,-350.0596"/>
<polygon fill="#757575" stroke="#757575" points="1230.3479,-353.4634 1239.7281,-348.5378 1229.3236,-346.5387 1230.3479,-353.4634"/>
</g>
<!-- luminary/Asteroid.js -->
<g id="node14" class="node">
<title>luminary/Asteroid.js</title>
<path fill="none" stroke="#c6c5fe" d="M1181.3333,-75.6963C1181.3333,-75.6963 1053.6667,-75.6963 1053.6667,-75.6963 1049.8333,-75.6963 1046,-71.863 1046,-68.0297 1046,-68.0297 1046,-60.363 1046,-60.363 1046,-56.5297 1049.8333,-52.6963 1053.6667,-52.6963 1053.6667,-52.6963 1181.3333,-52.6963 1181.3333,-52.6963 1185.1667,-52.6963 1189,-56.5297 1189,-60.363 1189,-60.363 1189,-68.0297 1189,-68.0297 1189,-71.863 1185.1667,-75.6963 1181.3333,-75.6963"/>
<text text-anchor="middle" x="1117.5" y="-60.4963" font-family="Arial" font-size="14.00" fill="#c6c5fe">luminary/Asteroid.js</text>
</g>
<!-- object/Emitter.js&#45;&gt;luminary/Asteroid.js -->
<g id="edge19" class="edge">
<title>object/Emitter.js&#45;&gt;luminary/Asteroid.js</title>
<path fill="none" stroke="#757575" d="M727.1885,-119.6346C748.4124,-110.6122 779.5647,-98.5737 808,-92.1963 883.9242,-75.1682 972.5313,-68.4395 1035.4344,-65.81"/>
<polygon fill="#757575" stroke="#757575" points="1035.839,-69.2969 1045.6942,-65.4079 1035.5648,-62.3023 1035.839,-69.2969"/>
</g>
<!-- luminary/Planet.js -->
<g id="node15" class="node">
<title>luminary/Planet.js</title>
<path fill="none" stroke="#c6c5fe" d="M959.3333,-44.6963C959.3333,-44.6963 843.6667,-44.6963 843.6667,-44.6963 839.8333,-44.6963 836,-40.863 836,-37.0297 836,-37.0297 836,-29.363 836,-29.363 836,-25.5297 839.8333,-21.6963 843.6667,-21.6963 843.6667,-21.6963 959.3333,-21.6963 959.3333,-21.6963 963.1667,-21.6963 967,-25.5297 967,-29.363 967,-29.363 967,-37.0297 967,-37.0297 967,-40.863 963.1667,-44.6963 959.3333,-44.6963"/>
<text text-anchor="middle" x="901.5" y="-29.4963" font-family="Arial" font-size="14.00" fill="#c6c5fe">luminary/Planet.js</text>
</g>
<!-- object/Emitter.js&#45;&gt;luminary/Planet.js -->
<g id="edge20" class="edge">
<title>object/Emitter.js&#45;&gt;luminary/Planet.js</title>
<path fill="none" stroke="#757575" d="M715.4215,-119.5924C734.9558,-103.8423 772.1395,-75.7665 808,-59.1963 817.7193,-54.7053 828.3746,-50.8418 838.9024,-47.5711"/>
<polygon fill="#757575" stroke="#757575" points="839.9067,-50.924 848.5045,-44.7329 837.9225,-44.2111 839.9067,-50.924"/>
</g>
<!-- powerup/PermanentFire.js -->
<g id="node16" class="node">
<title>powerup/PermanentFire.js</title>
<path fill="none" stroke="#c6c5fe" d="M987.3333,-124.6963C987.3333,-124.6963 815.6667,-124.6963 815.6667,-124.6963 811.8333,-124.6963 808,-120.863 808,-117.0297 808,-117.0297 808,-109.363 808,-109.363 808,-105.5297 811.8333,-101.6963 815.6667,-101.6963 815.6667,-101.6963 987.3333,-101.6963 987.3333,-101.6963 991.1667,-101.6963 995,-105.5297 995,-109.363 995,-109.363 995,-117.0297 995,-117.0297 995,-120.863 991.1667,-124.6963 987.3333,-124.6963"/>
<text text-anchor="middle" x="901.5" y="-109.4963" font-family="Arial" font-size="14.00" fill="#c6c5fe">powerup/PermanentFire.js</text>
</g>
<!-- object/Emitter.js&#45;&gt;powerup/PermanentFire.js -->
<g id="edge21" class="edge">
<title>object/Emitter.js&#45;&gt;powerup/PermanentFire.js</title>
<path fill="none" stroke="#757575" d="M761.2357,-125.8201C772.7704,-124.782 785.1631,-123.6667 797.636,-122.5441"/>
<polygon fill="#757575" stroke="#757575" points="797.9955,-126.026 807.6415,-121.6436 797.368,-119.0542 797.9955,-126.026"/>
</g>
<!-- powerup/RefillAmmo.js -->
<g id="node17" class="node">
<title>powerup/RefillAmmo.js</title>
<path fill="none" stroke="#c6c5fe" d="M975.8333,-206.6963C975.8333,-206.6963 827.1667,-206.6963 827.1667,-206.6963 823.3333,-206.6963 819.5,-202.863 819.5,-199.0297 819.5,-199.0297 819.5,-191.363 819.5,-191.363 819.5,-187.5297 823.3333,-183.6963 827.1667,-183.6963 827.1667,-183.6963 975.8333,-183.6963 975.8333,-183.6963 979.6667,-183.6963 983.5,-187.5297 983.5,-191.363 983.5,-191.363 983.5,-199.0297 983.5,-199.0297 983.5,-202.863 979.6667,-206.6963 975.8333,-206.6963"/>
<text text-anchor="middle" x="901.5" y="-191.4963" font-family="Arial" font-size="14.00" fill="#c6c5fe">powerup/RefillAmmo.js</text>
</g>
<!-- object/Emitter.js&#45;&gt;powerup/RefillAmmo.js -->
<g id="edge22" class="edge">
<title>object/Emitter.js&#45;&gt;powerup/RefillAmmo.js</title>
<path fill="none" stroke="#757575" d="M726.8984,-142.8165C748.2126,-152.2347 779.6373,-165.3501 808,-174.1963 816.1931,-176.7517 824.8809,-179.13 833.5312,-181.2987"/>
<polygon fill="#757575" stroke="#757575" points="832.7103,-184.701 843.2535,-183.6565 834.3601,-177.8982 832.7103,-184.701"/>
</g>
<!-- powerup/RefillShield.js -->
<g id="node18" class="node">
<title>powerup/RefillShield.js</title>
<path fill="none" stroke="#c6c5fe" d="M975.3333,-165.6963C975.3333,-165.6963 827.6667,-165.6963 827.6667,-165.6963 823.8333,-165.6963 820,-161.863 820,-158.0297 820,-158.0297 820,-150.363 820,-150.363 820,-146.5297 823.8333,-142.6963 827.6667,-142.6963 827.6667,-142.6963 975.3333,-142.6963 975.3333,-142.6963 979.1667,-142.6963 983,-146.5297 983,-150.363 983,-150.363 983,-158.0297 983,-158.0297 983,-161.863 979.1667,-165.6963 975.3333,-165.6963"/>
<text text-anchor="middle" x="901.5" y="-150.4963" font-family="Arial" font-size="14.00" fill="#c6c5fe">powerup/RefillShield.js</text>
</g>
<!-- object/Emitter.js&#45;&gt;powerup/RefillShield.js -->
<g id="edge23" class="edge">
<title>object/Emitter.js&#45;&gt;powerup/RefillShield.js</title>
<path fill="none" stroke="#757575" d="M761.2357,-138.0659C776.487,-139.8198 793.2383,-141.7462 809.6918,-143.6384"/>
<polygon fill="#757575" stroke="#757575" points="809.5475,-147.1448 819.8819,-144.8103 810.3473,-140.1906 809.5475,-147.1448"/>
</g>
<!-- object/Object.js&#45;&gt;../skin/Skin.js -->
<g id="edge24" class="edge">
<title>object/Object.js&#45;&gt;../skin/Skin.js</title>
<path fill="none" stroke="#757575" d="M1329.1904,-327.6439C1338.1963,-323.6751 1347.7995,-318.7985 1356,-313.1963 1386.111,-292.6263 1415.1268,-261.6852 1432.3931,-241.7134"/>
<polygon fill="#757575" stroke="#757575" points="1435.2344,-243.7748 1439.0425,-233.8879 1429.9001,-239.2421 1435.2344,-243.7748"/>
</g>
<!-- object/Object.js&#45;&gt;../utils/Vector.js -->
<g id="edge25" class="edge">
<title>object/Object.js&#45;&gt;../utils/Vector.js</title>
<path fill="none" stroke="#757575" d="M1327.3752,-350.7122C1350.8138,-359.9007 1383.8543,-372.8535 1409.5074,-382.9102"/>
<polygon fill="#757575" stroke="#757575" points="1408.3545,-386.2175 1418.9421,-386.6089 1410.9094,-379.7004 1408.3545,-386.2175"/>
</g>
<!-- character/Shield.js&#45;&gt;../skin/Skin.js -->
<g id="edge13" class="edge">
<title>character/Shield.js&#45;&gt;../skin/Skin.js</title>
<path fill="none" stroke="#757575" d="M1185.5675,-299.9986C1234.1144,-298.133 1300.3746,-292.0367 1356,-274.1963 1380.6485,-266.291 1406.1052,-251.3987 1424.0576,-239.5706"/>
<polygon fill="#757575" stroke="#757575" points="1426.3921,-242.2172 1432.7175,-233.7178 1422.4724,-236.4176 1426.3921,-242.2172"/>
</g>
<!-- character/Shield.js&#45;&gt;object/Object.js -->
<g id="edge14" class="edge">
<title>character/Shield.js&#45;&gt;object/Object.js</title>
<path fill="none" stroke="#757575" d="M1171.1672,-311.792C1191.0823,-316.095 1213.8582,-321.0161 1234.5632,-325.4898"/>
<polygon fill="#757575" stroke="#757575" points="1234.0259,-328.9544 1244.5395,-327.6453 1235.5043,-322.1123 1234.0259,-328.9544"/>
</g>
<!-- weapon/Weapon.js -->
<g id="node20" class="node">
<title>weapon/Weapon.js</title>
<path fill="none" stroke="#c6c5fe" d="M764.3333,-429.6963C764.3333,-429.6963 638.6667,-429.6963 638.6667,-429.6963 634.8333,-429.6963 631,-425.863 631,-422.0297 631,-422.0297 631,-414.363 631,-414.363 631,-410.5297 634.8333,-406.6963 638.6667,-406.6963 638.6667,-406.6963 764.3333,-406.6963 764.3333,-406.6963 768.1667,-406.6963 772,-410.5297 772,-414.363 772,-414.363 772,-422.0297 772,-422.0297 772,-425.863 768.1667,-429.6963 764.3333,-429.6963"/>
<text text-anchor="middle" x="701.5" y="-414.4963" font-family="Arial" font-size="14.00" fill="#c6c5fe">weapon/Weapon.js</text>
</g>
<!-- weapon/Canon.js&#45;&gt;weapon/Weapon.js -->
<g id="edge33" class="edge">
<title>weapon/Canon.js&#45;&gt;weapon/Weapon.js</title>
<path fill="none" stroke="#757575" d="M595.326,-418.1963C603.6946,-418.1963 612.3386,-418.1963 620.9136,-418.1963"/>
<polygon fill="#757575" stroke="#757575" points="620.9275,-421.6964 630.9275,-418.1963 620.9274,-414.6964 620.9275,-421.6964"/>
</g>
<!-- luminary/Asteroid.js&#45;&gt;../skin/Skin.js -->
<g id="edge15" class="edge">
<title>luminary/Asteroid.js&#45;&gt;../skin/Skin.js</title>
<path fill="none" stroke="#757575" d="M1189.1132,-57.0895C1239.1851,-55.5198 1305.8083,-60.5128 1356,-90.1963 1378.4704,-103.4854 1417.3225,-167.522 1436.7409,-201.2737"/>
<polygon fill="#757575" stroke="#757575" points="1433.8961,-203.3509 1441.8888,-210.3056 1439.9776,-199.8846 1433.8961,-203.3509"/>
</g>
<!-- luminary/Asteroid.js&#45;&gt;object/Object.js -->
<g id="edge16" class="edge">
<title>luminary/Asteroid.js&#45;&gt;object/Object.js</title>
<path fill="none" stroke="#757575" d="M1129.7186,-75.9475C1147.4794,-93.4347 1180.8315,-127.8383 1204,-161.1963 1240.8559,-214.2615 1273.503,-283.5145 1288.7989,-317.8997"/>
<polygon fill="#757575" stroke="#757575" points="1285.745,-319.6499 1292.9743,-327.3951 1292.1528,-316.8321 1285.745,-319.6499"/>
</g>
<!-- luminary/Planet.js&#45;&gt;../skin/Skin.js -->
<g id="edge17" class="edge">
<title>luminary/Planet.js&#45;&gt;../skin/Skin.js</title>
<path fill="none" stroke="#757575" d="M946.8963,-21.621C1034.0708,-2.1546 1227.6262,27.4276 1356,-55.1963 1408.5076,-88.9912 1433.8292,-163.4938 1443.5407,-200.4827"/>
<polygon fill="#757575" stroke="#757575" points="1440.1631,-201.4039 1445.9714,-210.2647 1446.9565,-199.7157 1440.1631,-201.4039"/>
</g>
<!-- luminary/Planet.js&#45;&gt;luminary/Asteroid.js -->
<g id="edge18" class="edge">
<title>luminary/Planet.js&#45;&gt;luminary/Asteroid.js</title>
<path fill="none" stroke="#757575" d="M967.1869,-42.6236C988.8106,-45.727 1013.1223,-49.2162 1035.7891,-52.4693"/>
<polygon fill="#757575" stroke="#757575" points="1035.334,-55.9398 1045.7299,-53.896 1036.3285,-49.0108 1035.334,-55.9398"/>
</g>
<!-- powerup/PermanentFire.js&#45;&gt;../skin/Skin.js -->
<g id="edge26" class="edge">
<title>powerup/PermanentFire.js&#45;&gt;../skin/Skin.js</title>
<path fill="none" stroke="#757575" d="M995.146,-111.6725C1088.9651,-112.8974 1236.2449,-122.3862 1356,-164.1963 1382.1443,-173.3241 1408.5734,-190.9229 1426.4478,-204.3516"/>
<polygon fill="#757575" stroke="#757575" points="1424.4391,-207.2223 1434.4966,-210.5535 1428.7116,-201.6774 1424.4391,-207.2223"/>
</g>
<!-- powerup/PowerUp.js -->
<g id="node19" class="node">
<title>powerup/PowerUp.js</title>
<path fill="none" stroke="#c6c5fe" d="M1185.3333,-193.6963C1185.3333,-193.6963 1049.6667,-193.6963 1049.6667,-193.6963 1045.8333,-193.6963 1042,-189.863 1042,-186.0297 1042,-186.0297 1042,-178.363 1042,-178.363 1042,-174.5297 1045.8333,-170.6963 1049.6667,-170.6963 1049.6667,-170.6963 1185.3333,-170.6963 1185.3333,-170.6963 1189.1667,-170.6963 1193,-174.5297 1193,-178.363 1193,-178.363 1193,-186.0297 1193,-186.0297 1193,-189.863 1189.1667,-193.6963 1185.3333,-193.6963"/>
<text text-anchor="middle" x="1117.5" y="-178.4963" font-family="Arial" font-size="14.00" fill="#c6c5fe">powerup/PowerUp.js</text>
</g>
<!-- powerup/PermanentFire.js&#45;&gt;powerup/PowerUp.js -->
<g id="edge27" class="edge">
<title>powerup/PermanentFire.js&#45;&gt;powerup/PowerUp.js</title>
<path fill="none" stroke="#757575" d="M962.7404,-124.7336C973.5701,-127.2164 984.6781,-130.0529 995,-133.1963 1025.2361,-142.4044 1058.4677,-155.9223 1082.6808,-166.4286"/>
<polygon fill="#757575" stroke="#757575" points="1081.5802,-169.7677 1092.1438,-170.5805 1084.3927,-163.3576 1081.5802,-169.7677"/>
</g>
<!-- powerup/RefillAmmo.js&#45;&gt;../skin/Skin.js -->
<g id="edge29" class="edge">
<title>powerup/RefillAmmo.js&#45;&gt;../skin/Skin.js</title>
<path fill="none" stroke="#757575" d="M983.7038,-199.7159C999.4048,-200.5575 1015.7093,-201.4168 1031,-202.1963 1157.836,-208.6623 1306.3795,-215.6349 1387.6693,-219.3994"/>
<polygon fill="#757575" stroke="#757575" points="1387.5725,-222.8985 1397.7235,-219.8645 1387.896,-215.906 1387.5725,-222.8985"/>
</g>
<!-- powerup/RefillAmmo.js&#45;&gt;powerup/PowerUp.js -->
<g id="edge30" class="edge">
<title>powerup/RefillAmmo.js&#45;&gt;powerup/PowerUp.js</title>
<path fill="none" stroke="#757575" d="M983.7765,-190.2445C999.4244,-189.3027 1015.8372,-188.3149 1031.5944,-187.3666"/>
<polygon fill="#757575" stroke="#757575" points="1032.0683,-190.8445 1041.8399,-186.7499 1031.6477,-183.8571 1032.0683,-190.8445"/>
</g>
<!-- powerup/RefillShield.js&#45;&gt;../skin/Skin.js -->
<g id="edge31" class="edge">
<title>powerup/RefillShield.js&#45;&gt;../skin/Skin.js</title>
<path fill="none" stroke="#757575" d="M983.0891,-151.2201C1044.1874,-150.1679 1129.6818,-151.1915 1204,-161.1963 1274.7831,-170.7253 1354.7193,-192.9077 1403.3492,-207.7301"/>
<polygon fill="#757575" stroke="#757575" points="1402.3539,-211.0857 1412.9411,-210.6823 1404.4131,-204.3954 1402.3539,-211.0857"/>
</g>
<!-- powerup/RefillShield.js&#45;&gt;powerup/PowerUp.js -->
<g id="edge32" class="edge">
<title>powerup/RefillShield.js&#45;&gt;powerup/PowerUp.js</title>
<path fill="none" stroke="#757575" d="M983.1603,-164.7819C998.9385,-166.8272 1015.5154,-168.9761 1031.4291,-171.039"/>
<polygon fill="#757575" stroke="#757575" points="1031.4089,-174.5656 1041.7759,-172.3802 1032.3088,-167.6237 1031.4089,-174.5656"/>
</g>
<!-- powerup/PowerUp.js&#45;&gt;object/Object.js -->
<g id="edge28" class="edge">
<title>powerup/PowerUp.js&#45;&gt;object/Object.js</title>
<path fill="none" stroke="#757575" d="M1130.7726,-193.7409C1161.8055,-220.7336 1239.3168,-288.1534 1276.9026,-320.8457"/>
<polygon fill="#757575" stroke="#757575" points="1274.8658,-323.7128 1284.7079,-327.6348 1279.4598,-318.4312 1274.8658,-323.7128"/>
</g>
<!-- weapon/Weapon.js&#45;&gt;../utils/Vector.js -->
<g id="edge34" class="edge">
<title>weapon/Weapon.js&#45;&gt;../utils/Vector.js</title>
<path fill="none" stroke="#757575" d="M749.4503,-429.7118C767.6674,-433.5418 788.6809,-437.3098 808,-439.1963 983.1668,-456.3016 1028.6069,-453.8001 1204,-439.1963 1266.1978,-434.0175 1336.3825,-421.5505 1385.5491,-411.7137"/>
<polygon fill="#757575" stroke="#757575" points="1386.2942,-415.1339 1395.4021,-409.7213 1384.9068,-408.2728 1386.2942,-415.1339"/>
</g>
<!-- weapon/ammo/Bullet.js -->
<g id="node21" class="node">
<title>weapon/ammo/Bullet.js</title>
<path fill="none" stroke="#c6c5fe" d="M977.3333,-429.6963C977.3333,-429.6963 825.6667,-429.6963 825.6667,-429.6963 821.8333,-429.6963 818,-425.863 818,-422.0297 818,-422.0297 818,-414.363 818,-414.363 818,-410.5297 821.8333,-406.6963 825.6667,-406.6963 825.6667,-406.6963 977.3333,-406.6963 977.3333,-406.6963 981.1667,-406.6963 985,-410.5297 985,-414.363 985,-414.363 985,-422.0297 985,-422.0297 985,-425.863 981.1667,-429.6963 977.3333,-429.6963"/>
<text text-anchor="middle" x="901.5" y="-414.4963" font-family="Arial" font-size="14.00" fill="#c6c5fe">weapon/ammo/Bullet.js</text>
</g>
<!-- weapon/Weapon.js&#45;&gt;weapon/ammo/Bullet.js -->
<g id="edge35" class="edge">
<title>weapon/Weapon.js&#45;&gt;weapon/ammo/Bullet.js</title>
<path fill="none" stroke="#757575" d="M772.0125,-418.1963C783.6103,-418.1963 795.7892,-418.1963 807.8447,-418.1963"/>
<polygon fill="#757575" stroke="#757575" points="807.9268,-421.6964 817.9268,-418.1963 807.9267,-414.6964 807.9268,-421.6964"/>
</g>
<!-- weapon/ammo/Ammo.js -->
<g id="node22" class="node">
<title>weapon/ammo/Ammo.js</title>
<path fill="none" stroke="#c6c5fe" d="M1196.3333,-429.6963C1196.3333,-429.6963 1038.6667,-429.6963 1038.6667,-429.6963 1034.8333,-429.6963 1031,-425.863 1031,-422.0297 1031,-422.0297 1031,-414.363 1031,-414.363 1031,-410.5297 1034.8333,-406.6963 1038.6667,-406.6963 1038.6667,-406.6963 1196.3333,-406.6963 1196.3333,-406.6963 1200.1667,-406.6963 1204,-410.5297 1204,-414.363 1204,-414.363 1204,-422.0297 1204,-422.0297 1204,-425.863 1200.1667,-429.6963 1196.3333,-429.6963"/>
<text text-anchor="middle" x="1117.5" y="-414.4963" font-family="Arial" font-size="14.00" fill="#c6c5fe">weapon/ammo/Ammo.js</text>
</g>
<!-- weapon/ammo/Bullet.js&#45;&gt;weapon/ammo/Ammo.js -->
<g id="edge38" class="edge">
<title>weapon/ammo/Bullet.js&#45;&gt;weapon/ammo/Ammo.js</title>
<path fill="none" stroke="#757575" d="M985.0112,-418.1963C996.79,-418.1963 1008.9791,-418.1963 1020.977,-418.1963"/>
<polygon fill="#757575" stroke="#757575" points="1020.9972,-421.6964 1030.9972,-418.1963 1020.9971,-414.6964 1020.9972,-421.6964"/>
</g>
<!-- weapon/ammo/Ammo.js&#45;&gt;../skin/Skin.js -->
<g id="edge36" class="edge">
<title>weapon/ammo/Ammo.js&#45;&gt;../skin/Skin.js</title>
<path fill="none" stroke="#757575" d="M1204.0586,-412.4936C1252.3477,-405.7469 1311.5366,-391.2345 1356,-360.1963 1398.7091,-330.3828 1427.1918,-273.961 1440.2667,-243.3061"/>
<polygon fill="#757575" stroke="#757575" points="1443.5383,-244.5531 1444.1084,-233.9736 1437.0653,-241.8884 1443.5383,-244.5531"/>
</g>
<!-- weapon/ammo/Ammo.js&#45;&gt;object/Object.js -->
<g id="edge37" class="edge">
<title>weapon/ammo/Ammo.js&#45;&gt;object/Object.js</title>
<path fill="none" stroke="#757575" d="M1162.6193,-406.6861C1176.1468,-402.6905 1190.8717,-397.7886 1204,-392.1963 1227.7394,-382.084 1253.1434,-367.5117 1271.5495,-356.2054"/>
<polygon fill="#757575" stroke="#757575" points="1273.6013,-359.0508 1280.2375,-350.7918 1269.8994,-353.1098 1273.6013,-359.0508"/>
</g>
</g>
</svg>
